<?xml version="1.0" encoding="UTF-8" standalone="no"?><svg xmlns="http://www.w3.org/2000/svg" xmlns:xlink="http://www.w3.org/1999/xlink" clip-rule="evenodd" stroke-miterlimit="10" viewBox="0 0 1024 768"><desc>SVG generated by Keynote</desc><defs></defs><g transform="matrix(1.00, 0.00, -0.00, -1.00, 0.0, 768.0)"><g><clipPath id="clip0x6000012ae460"><path d="M 0.0 768.0 L 1024.0 768.0 L 1024.0 0.0 L 0.0 0.0 Z M 0.0 768.0 "></path></clipPath><g clip-path="url(#clip0x6000012ae460)"><image xlink:href="../../D6BA4055-94D5-4435-8F94-2B12B05BE35D/assets/BD7081C45D061393604842EE23F15602.jpeg" width="1024.00" height="768.00" transform="matrix(1.00, 0.00, -0.00, -1.00, 0.0, 768.0)"></image></g></g><g opacity="0.45"><g><clipPath id="clip0x6080010add40"><path d="M 0.0 0.0 L 1024.0 0.0 L 1024.0 768.0 L 0.0 768.0 Z M 0.0 0.0 "></path></clipPath><g clip-path="url(#clip0x6080010add40)"><image xlink:href="../../D6BA4055-94D5-4435-8F94-2B12B05BE35D/assets/43C205575475996EB74B305E796123B9.png" width="44.00" height="6.00" transform="matrix(0.00, -1.00, -1.00, 0.00, 924.0, 745.0)"></image><path d="M 0.0 0.0 L 40.0 0.0 " fill="none" stroke="#000000" stroke-width="2.00" transform="matrix(0.00, -1.00, -1.00, 0.00, 921.0, 745.0)"></path></g></g></g><g opacity="0.60"><g><clipPath id="clip0x6080010ae0a0"><path d="M 0.0 0.0 L 1024.0 0.0 L 1024.0 768.0 L 0.0 768.0 Z M 0.0 0.0 "></path></clipPath><g clip-path="url(#clip0x6080010ae0a0)"><image xlink:href="../../D6BA4055-94D5-4435-8F94-2B12B05BE35D/assets/84E1D2A8729F0AA5F0515D07025067FB.png" width="31.00" height="31.00" transform="matrix(1.00, 0.00, -0.00, -1.00, 941.0, 742.0)" opacity="0.80"></image><path d="M 954.0 720.0 L 954.0 712.0 L 970.0 725.5 L 954.0 739.0 L 954.0 731.0 L 943.0 731.0 L 943.0 720.0 Z M 954.0 720.0 " fill="#FFFFFF"></path></g></g></g><g opacity="0.60"><g><clipPath id="clip0x6080010ae400"><path d="M 0.0 0.0 L 1024.0 0.0 L 1024.0 768.0 L 0.0 768.0 Z M 0.0 0.0 "></path></clipPath><g clip-path="url(#clip0x6080010ae400)"><image xlink:href="../../D6BA4055-94D5-4435-8F94-2B12B05BE35D/assets/115227F07B60D39A99AEDB43FBD1EDDA.png" width="31.00" height="31.00" transform="matrix(1.00, 0.00, -0.00, -1.00, 870.0, 742.0)" opacity="0.80"></image><path d="M 888.0 720.0 L 888.0 712.0 L 872.0 725.5 L 888.0 739.0 L 888.0 731.0 L 899.0 731.0 L 899.0 720.0 Z M 888.0 720.0 " fill="#FFFFFF"></path></g></g></g><g opacity="0.60"><g><clipPath id="clip0x6080010ae760"><path d="M 0.0 0.0 L 1024.0 0.0 L 1024.0 768.0 L 0.0 768.0 Z M 0.0 0.0 "></path></clipPath><g clip-path="url(#clip0x6080010ae760)"><image xlink:href="../../D6BA4055-94D5-4435-8F94-2B12B05BE35D/assets/DB7D83AEDC566E9086A7A25E97A2FBDB.png" width="32.00" height="32.00" transform="matrix(1.00, 0.00, -0.00, -1.00, 51.0, 741.0)" opacity="0.80"></image><image xlink:href="../../D6BA4055-94D5-4435-8F94-2B12B05BE35D/assets/51907E0A5389CEAE4968AE218E13605B.png" width="28.00" height="28.00" transform="matrix(1.00, 0.00, -0.00, -1.00, 53.0, 738.0)"></image></g></g></g><text xml:space="preserve" font-family="Futura-Medium,Futura" font-size="49.0" fill="#B5B8B9" transform="matrix(1.00, 0.00, -0.00, -1.00, 204.4, 598.2)">C</text><text xml:space="preserve" font-family="Futura-Medium,Futura" font-size="49.0" fill="#B5B8B9" transform="matrix(1.00, 0.00, -0.00, -1.00, 238.8, 598.2)">o</text><text xml:space="preserve" font-family="Futura-Medium,Futura" font-size="49.0" fill="#B5B8B9" transform="matrix(1.00, 0.00, -0.00, -1.00, 268.2, 598.2)">n</text><text xml:space="preserve" font-family="Futura-Medium,Futura" font-size="49.0" fill="#B5B8B9" transform="matrix(1.00, 0.00, -0.00, -1.00, 295.1, 598.2)">c</text><text xml:space="preserve" font-family="Futura-Medium,Futura" font-size="49.0" fill="#B5B8B9" transform="matrix(1.00, 0.00, -0.00, -1.00, 318.4, 598.2)">l</text><text xml:space="preserve" font-family="Futura-Medium,Futura" font-size="49.0" fill="#B5B8B9" transform="matrix(1.00, 0.00, -0.00, -1.00, 330.6, 598.2)">u</text><text xml:space="preserve" font-family="Futura-Medium,Futura" font-size="49.0" fill="#B5B8B9" transform="matrix(1.00, 0.00, -0.00, -1.00, 357.3, 598.2)">s</text><text xml:space="preserve" font-family="Futura-Medium,Futura" font-size="49.0" fill="#B5B8B9" transform="matrix(1.00, 0.00, -0.00, -1.00, 377.2, 598.2)">i</text><text xml:space="preserve" font-family="Futura-Medium,Futura" font-size="49.0" fill="#B5B8B9" transform="matrix(1.00, 0.00, -0.00, -1.00, 389.4, 598.2)">o</text><text xml:space="preserve" font-family="Futura-Medium,Futura" font-size="49.0" fill="#B5B8B9" transform="matrix(1.00, 0.00, -0.00, -1.00, 418.9, 598.2)">n</text><text xml:space="preserve" font-family="Futura-Medium,Futura" font-size="49.0" fill="#B5B8B9" transform="matrix(1.00, 0.00, -0.00, -1.00, 445.7, 598.2)">s</text><text xml:space="preserve" font-family="Futura-Medium,Futura" font-size="49.0" fill="#B5B8B9" transform="matrix(1.00, 0.00, -0.00, -1.00, 465.6, 598.2)"> </text><text xml:space="preserve" font-family="Futura-Medium,Futura" font-size="49.0" fill="#B5B8B9" transform="matrix(1.00, 0.00, -0.00, -1.00, 480.7, 598.2)">(</text><text xml:space="preserve" font-family="Futura-Medium,Futura" font-size="49.0" fill="#B5B8B9" transform="matrix(1.00, 0.00, -0.00, -1.00, 498.7, 598.2)">7</text><text xml:space="preserve" font-family="Futura-Medium,Futura" font-size="49.0" fill="#B5B8B9" transform="matrix(1.00, 0.00, -0.00, -1.00, 528.9, 598.2)">/</text><text xml:space="preserve" font-family="Futura-Medium,Futura" font-size="49.0" fill="#B5B8B9" transform="matrix(1.00, 0.00, -0.00, -1.00, 554.3, 598.2)">1</text><text xml:space="preserve" font-family="Futura-Medium,Futura" font-size="49.0" fill="#B5B8B9" transform="matrix(1.00, 0.00, -0.00, -1.00, 581.1, 598.2)">3</text><text xml:space="preserve" font-family="Futura-Medium,Futura" font-size="49.0" fill="#B5B8B9" transform="matrix(1.00, 0.00, -0.00, -1.00, 611.3, 598.2)"> </text><text xml:space="preserve" font-family="Futura-Medium,Futura" font-size="49.0" fill="#B5B8B9" transform="matrix(1.00, 0.00, -0.00, -1.00, 626.4, 598.2)">s</text><text xml:space="preserve" font-family="Futura-Medium,Futura" font-size="49.0" fill="#B5B8B9" transform="matrix(1.00, 0.00, -0.00, -1.00, 646.3, 598.2)">a</text><text xml:space="preserve" font-family="Futura-Medium,Futura" font-size="49.0" fill="#B5B8B9" transform="matrix(1.00, 0.00, -0.00, -1.00, 675.6, 598.2)">m</text><text xml:space="preserve" font-family="Futura-Medium,Futura" font-size="49.0" fill="#B5B8B9" transform="matrix(1.00, 0.00, -0.00, -1.00, 715.0, 598.2)">p</text><text xml:space="preserve" font-family="Futura-Medium,Futura" font-size="49.0" fill="#B5B8B9" transform="matrix(1.00, 0.00, -0.00, -1.00, 744.4, 598.2)">l</text><text xml:space="preserve" font-family="Futura-Medium,Futura" font-size="49.0" fill="#B5B8B9" transform="matrix(1.00, 0.00, -0.00, -1.00, 756.6, 598.2)">e</text><text xml:space="preserve" font-family="Futura-Medium,Futura" font-size="49.0" fill="#B5B8B9" transform="matrix(1.00, 0.00, -0.00, -1.00, 783.7, 598.2)">s</text><text xml:space="preserve" font-family="Futura-Medium,Futura" font-size="49.0" fill="#B5B8B9" transform="matrix(1.00, 0.00, -0.00, -1.00, 803.5, 598.2)">)</text><text xml:space="preserve" font-family="GillSans,Gill Sans" font-size="32.0" fill="#000000" transform="matrix(1.00, 0.00, -0.00, -1.00, 485.1, 504.4)">G</text><text xml:space="preserve" font-family="GillSans,Gill Sans" font-size="32.0" fill="#000000" transform="matrix(1.00, 0.00, -0.00, -1.00, 508.8, 504.4)">i</text><text xml:space="preserve" font-family="GillSans,Gill Sans" font-size="32.0" fill="#000000" transform="matrix(1.00, 0.00, -0.00, -1.00, 515.9, 504.4)">g</text><text xml:space="preserve" font-family="GillSans,Gill Sans" font-size="32.0" fill="#000000" transform="matrix(1.00, 0.00, -0.00, -1.00, 529.5, 504.4)">a</text><text xml:space="preserve" font-family="GillSans,Gill Sans" font-size="32.0" fill="#000000" transform="matrix(1.00, 0.00, -0.00, -1.00, 543.2, 504.4)">b</text><text xml:space="preserve" font-family="GillSans,Gill Sans" font-size="32.0" fill="#000000" transform="matrix(1.00, 0.00, -0.00, -1.00, 559.2, 504.4)">i</text><text xml:space="preserve" font-family="GillSans,Gill Sans" font-size="32.0" fill="#000000" transform="matrix(1.00, 0.00, -0.00, -1.00, 566.2, 504.4)">t</text><text xml:space="preserve" font-family="GillSans,Gill Sans" font-size="32.0" fill="#000000" transform="matrix(1.00, 0.00, -0.00, -1.00, 576.8, 504.4)">:</text><text xml:space="preserve" font-family="GillSans,Gill Sans" font-size="32.0" fill="#000000" transform="matrix(1.00, 0.00, -0.00, -1.00, 583.9, 504.4)">	</text><text xml:space="preserve" font-family="GillSans,Gill Sans" font-size="32.0" fill="#000000" transform="matrix(1.00, 0.00, -0.00, -1.00, 611.9, 504.4)">
</text><text xml:space="preserve" font-family="GillSans,Gill Sans" font-size="32.0" fill="#000000" transform="matrix(1.00, 0.00, -0.00, -1.00, 611.9, 504.4)"></text><text xml:space="preserve" font-family="GillSans,Gill Sans" font-size="32.0" fill="#000000" transform="matrix(1.00, 0.00, -0.00, -1.00, 171.0, 444.4)">4</text><text xml:space="preserve" font-family="GillSans,Gill Sans" font-size="32.0" fill="#000000" transform="matrix(1.00, 0.00, -0.00, -1.00, 187.0, 444.4)">8</text><text xml:space="preserve" font-family="GillSans,Gill Sans" font-size="32.0" fill="#000000" transform="matrix(1.00, 0.00, -0.00, -1.00, 203.0, 444.4)"> </text><text xml:space="preserve" font-family="GillSans,Gill Sans" font-size="32.0" fill="#000000" transform="matrix(1.00, 0.00, -0.00, -1.00, 211.9, 444.4)">K</text><text xml:space="preserve" font-family="GillSans,Gill Sans" font-size="32.0" fill="#000000" transform="matrix(1.00, 0.00, -0.00, -1.00, 232.9, 444.4)">H</text><text xml:space="preserve" font-family="GillSans,Gill Sans" font-size="32.0" fill="#000000" transform="matrix(1.00, 0.00, -0.00, -1.00, 256.2, 444.4)">z</text><text xml:space="preserve" font-family="GillSans,Gill Sans" font-size="32.0" fill="#000000" transform="matrix(1.00, 0.00, -0.00, -1.00, 269.5, 444.4)"> </text><text xml:space="preserve" font-family="GillSans,Gill Sans" font-size="32.0" fill="#000000" transform="matrix(1.00, 0.00, -0.00, -1.00, 278.4, 444.4)">(</text><text xml:space="preserve" font-family="GillSans,Gill Sans" font-size="32.0" fill="#000000" transform="matrix(1.00, 0.00, -0.00, -1.00, 288.8, 444.4)">7</text><text xml:space="preserve" font-family="GillSans,Gill Sans" font-size="32.0" fill="#000000" transform="matrix(1.00, 0.00, -0.00, -1.00, 304.8, 444.4)"> </text><text xml:space="preserve" font-family="GillSans,Gill Sans" font-size="32.0" fill="#000000" transform="matrix(1.00, 0.00, -0.00, -1.00, 313.7, 444.4)">s</text><text xml:space="preserve" font-family="GillSans,Gill Sans" font-size="32.0" fill="#000000" transform="matrix(1.00, 0.00, -0.00, -1.00, 326.0, 444.4)">a</text><text xml:space="preserve" font-family="GillSans,Gill Sans" font-size="32.0" fill="#000000" transform="matrix(1.00, 0.00, -0.00, -1.00, 339.6, 444.4)">m</text><text xml:space="preserve" font-family="GillSans,Gill Sans" font-size="32.0" fill="#000000" transform="matrix(1.00, 0.00, -0.00, -1.00, 364.3, 444.4)">p</text><text xml:space="preserve" font-family="GillSans,Gill Sans" font-size="32.0" fill="#000000" transform="matrix(1.00, 0.00, -0.00, -1.00, 380.3, 444.4)">l</text><text xml:space="preserve" font-family="GillSans,Gill Sans" font-size="32.0" fill="#000000" transform="matrix(1.00, 0.00, -0.00, -1.00, 387.3, 444.4)">e</text><text xml:space="preserve" font-family="GillSans,Gill Sans" font-size="32.0" fill="#000000" transform="matrix(1.00, 0.00, -0.00, -1.00, 402.6, 444.4)">s</text><text xml:space="preserve" font-family="GillSans,Gill Sans" font-size="32.0" fill="#000000" transform="matrix(1.00, 0.00, -0.00, -1.00, 414.9, 444.4)">)</text><text xml:space="preserve" font-family="GillSans,Gill Sans" font-size="32.0" fill="#000000" transform="matrix(1.00, 0.00, -0.00, -1.00, 425.3, 444.4)">:</text><text xml:space="preserve" font-family="GillSans,Gill Sans" font-size="32.0" fill="#000000" transform="matrix(1.00, 0.00, -0.00, -1.00, 429.1, 444.4)"> </text><text xml:space="preserve" font-family="GillSans,Gill Sans" font-size="32.0" fill="#000000" transform="matrix(1.00, 0.00, -0.00, -1.00, 438.0, 444.4)">7</text><text xml:space="preserve" font-family="GillSans,Gill Sans" font-size="32.0" fill="#000000" transform="matrix(1.00, 0.00, -0.00, -1.00, 454.0, 444.4)"> </text><text xml:space="preserve" font-family="GillSans,Gill Sans" font-size="32.0" fill="#000000" transform="matrix(1.00, 0.00, -0.00, -1.00, 462.9, 444.4)">s</text><text xml:space="preserve" font-family="GillSans,Gill Sans" font-size="32.0" fill="#000000" transform="matrix(1.00, 0.00, -0.00, -1.00, 475.2, 444.4)">t</text><text xml:space="preserve" font-family="GillSans,Gill Sans" font-size="32.0" fill="#000000" transform="matrix(1.00, 0.00, -0.00, -1.00, 485.8, 444.4)">r</text><text xml:space="preserve" font-family="GillSans,Gill Sans" font-size="32.0" fill="#000000" transform="matrix(1.00, 0.00, -0.00, -1.00, 497.9, 444.4)">e</text><text xml:space="preserve" font-family="GillSans,Gill Sans" font-size="32.0" fill="#000000" transform="matrix(1.00, 0.00, -0.00, -1.00, 513.2, 444.4)">a</text><text xml:space="preserve" font-family="GillSans,Gill Sans" font-size="32.0" fill="#000000" transform="matrix(1.00, 0.00, -0.00, -1.00, 526.9, 444.4)">m</text><text xml:space="preserve" font-family="GillSans,Gill Sans" font-size="32.0" fill="#000000" transform="matrix(1.00, 0.00, -0.00, -1.00, 551.5, 444.4)">s</text><text xml:space="preserve" font-family="GillSans,Gill Sans" font-size="32.0" fill="#000000" transform="matrix(1.00, 0.00, -0.00, -1.00, 563.8, 444.4)"> </text><text xml:space="preserve" font-family="GillSans,Gill Sans" font-size="32.0" fill="#000000" transform="matrix(1.00, 0.00, -0.00, -1.00, 572.7, 444.4)">@</text><text xml:space="preserve" font-family="GillSans,Gill Sans" font-size="32.0" fill="#000000" transform="matrix(1.00, 0.00, -0.00, -1.00, 605.0, 444.4)"> </text><text xml:space="preserve" font-family="GillSans,Gill Sans" font-size="32.0" fill="#000000" transform="matrix(1.00, 0.00, -0.00, -1.00, 613.9, 444.4)">5</text><text xml:space="preserve" font-family="GillSans,Gill Sans" font-size="32.0" fill="#000000" transform="matrix(1.00, 0.00, -0.00, -1.00, 629.9, 444.4)">2</text><text xml:space="preserve" font-family="GillSans,Gill Sans" font-size="32.0" fill="#000000" transform="matrix(1.00, 0.00, -0.00, -1.00, 645.9, 444.4)"> </text><text xml:space="preserve" font-family="GillSans,Gill Sans" font-size="32.0" fill="#000000" transform="matrix(1.00, 0.00, -0.00, -1.00, 654.8, 444.4)">+</text><text xml:space="preserve" font-family="GillSans,Gill Sans" font-size="32.0" fill="#000000" transform="matrix(1.00, 0.00, -0.00, -1.00, 673.5, 444.4)"> </text><text xml:space="preserve" font-family="GillSans,Gill Sans" font-size="32.0" fill="#000000" transform="matrix(1.00, 0.00, -0.00, -1.00, 682.4, 444.4)">o</text><text xml:space="preserve" font-family="GillSans,Gill Sans" font-size="32.0" fill="#000000" transform="matrix(1.00, 0.00, -0.00, -1.00, 700.0, 444.4)">n</text><text xml:space="preserve" font-family="GillSans,Gill Sans" font-size="32.0" fill="#000000" transform="matrix(1.00, 0.00, -0.00, -1.00, 716.0, 444.4)">e</text><text xml:space="preserve" font-family="GillSans,Gill Sans" font-size="32.0" fill="#000000" transform="matrix(1.00, 0.00, -0.00, -1.00, 731.3, 444.4)"> </text><text xml:space="preserve" font-family="GillSans,Gill Sans" font-size="32.0" fill="#000000" transform="matrix(1.00, 0.00, -0.00, -1.00, 740.2, 444.4)">@</text><text xml:space="preserve" font-family="GillSans,Gill Sans" font-size="32.0" fill="#000000" transform="matrix(1.00, 0.00, -0.00, -1.00, 772.5, 444.4)"> </text><text xml:space="preserve" font-family="GillSans,Gill Sans" font-size="32.0" fill="#000000" transform="matrix(1.00, 0.00, -0.00, -1.00, 781.4, 444.4)">2</text><text xml:space="preserve" font-family="GillSans,Gill Sans" font-size="32.0" fill="#000000" transform="matrix(1.00, 0.00, -0.00, -1.00, 797.4, 444.4)">9</text><text xml:space="preserve" font-family="GillSans,Gill Sans" font-size="32.0" fill="#000000" transform="matrix(1.00, 0.00, -0.00, -1.00, 813.4, 444.4)"> </text><text xml:space="preserve" font-family="GillSans,Gill Sans" font-size="32.0" fill="#000000" transform="matrix(1.00, 0.00, -0.00, -1.00, 822.3, 444.4)">=</text><text xml:space="preserve" font-family="GillSans,Gill Sans" font-size="32.0" fill="#000000" transform="matrix(1.00, 0.00, -0.00, -1.00, 841.0, 444.4)"> </text><text xml:space="preserve" font-family="GillSans,Gill Sans" font-size="32.0" fill="#000000" transform="matrix(1.00, 0.00, -0.00, -1.00, 849.9, 444.4)">3</text><text xml:space="preserve" font-family="GillSans,Gill Sans" font-size="32.0" fill="#000000" transform="matrix(1.00, 0.00, -0.00, -1.00, 865.9, 444.4)">9</text><text xml:space="preserve" font-family="GillSans,Gill Sans" font-size="32.0" fill="#000000" transform="matrix(1.00, 0.00, -0.00, -1.00, 881.9, 444.4)">3</text><text xml:space="preserve" font-family="GillSans,Gill Sans" font-size="32.0" fill="#000000" transform="matrix(1.00, 0.00, -0.00, -1.00, 897.9, 444.4)">	</text><text xml:space="preserve" font-family="GillSans,Gill Sans" font-size="32.0" fill="#000000" transform="matrix(1.00, 0.00, -0.00, -1.00, 925.9, 444.4)">
</text><text xml:space="preserve" font-family="GillSans,Gill Sans" font-size="32.0" fill="#000000" transform="matrix(1.00, 0.00, -0.00, -1.00, 925.9, 444.4)"></text><text xml:space="preserve" font-family="GillSans,Gill Sans" font-size="32.0" fill="#000000" transform="matrix(1.00, 0.00, -0.00, -1.00, 167.5, 384.4)">9</text><text xml:space="preserve" font-family="GillSans,Gill Sans" font-size="32.0" fill="#000000" transform="matrix(1.00, 0.00, -0.00, -1.00, 183.5, 384.4)">6</text><text xml:space="preserve" font-family="GillSans,Gill Sans" font-size="32.0" fill="#000000" transform="matrix(1.00, 0.00, -0.00, -1.00, 199.5, 384.4)"> </text><text xml:space="preserve" font-family="GillSans,Gill Sans" font-size="32.0" fill="#000000" transform="matrix(1.00, 0.00, -0.00, -1.00, 208.3, 384.4)">K</text><text xml:space="preserve" font-family="GillSans,Gill Sans" font-size="32.0" fill="#000000" transform="matrix(1.00, 0.00, -0.00, -1.00, 229.3, 384.4)">H</text><text xml:space="preserve" font-family="GillSans,Gill Sans" font-size="32.0" fill="#000000" transform="matrix(1.00, 0.00, -0.00, -1.00, 252.6, 384.4)">z</text><text xml:space="preserve" font-family="GillSans,Gill Sans" font-size="32.0" fill="#000000" transform="matrix(1.00, 0.00, -0.00, -1.00, 266.0, 384.4)"> </text><text xml:space="preserve" font-family="GillSans,Gill Sans" font-size="32.0" fill="#000000" transform="matrix(1.00, 0.00, -0.00, -1.00, 274.9, 384.4)">(</text><text xml:space="preserve" font-family="GillSans,Gill Sans" font-size="32.0" fill="#000000" transform="matrix(1.00, 0.00, -0.00, -1.00, 285.2, 384.4)">1</text><text xml:space="preserve" font-family="GillSans,Gill Sans" font-size="32.0" fill="#000000" transform="matrix(1.00, 0.00, -0.00, -1.00, 301.2, 384.4)">3</text><text xml:space="preserve" font-family="GillSans,Gill Sans" font-size="32.0" fill="#000000" transform="matrix(1.00, 0.00, -0.00, -1.00, 317.2, 384.4)"> </text><text xml:space="preserve" font-family="GillSans,Gill Sans" font-size="32.0" fill="#000000" transform="matrix(1.00, 0.00, -0.00, -1.00, 326.1, 384.4)">s</text><text xml:space="preserve" font-family="GillSans,Gill Sans" font-size="32.0" fill="#000000" transform="matrix(1.00, 0.00, -0.00, -1.00, 338.4, 384.4)">a</text><text xml:space="preserve" font-family="GillSans,Gill Sans" font-size="32.0" fill="#000000" transform="matrix(1.00, 0.00, -0.00, -1.00, 352.1, 384.4)">m</text><text xml:space="preserve" font-family="GillSans,Gill Sans" font-size="32.0" fill="#000000" transform="matrix(1.00, 0.00, -0.00, -1.00, 376.7, 384.4)">p</text><text xml:space="preserve" font-family="GillSans,Gill Sans" font-size="32.0" fill="#000000" transform="matrix(1.00, 0.00, -0.00, -1.00, 392.7, 384.4)">l</text><text xml:space="preserve" font-family="GillSans,Gill Sans" font-size="32.0" fill="#000000" transform="matrix(1.00, 0.00, -0.00, -1.00, 399.8, 384.4)">e</text><text xml:space="preserve" font-family="GillSans,Gill Sans" font-size="32.0" fill="#000000" transform="matrix(1.00, 0.00, -0.00, -1.00, 415.1, 384.4)">s</text><text xml:space="preserve" font-family="GillSans,Gill Sans" font-size="32.0" fill="#000000" transform="matrix(1.00, 0.00, -0.00, -1.00, 427.4, 384.4)">)</text><text xml:space="preserve" font-family="GillSans,Gill Sans" font-size="32.0" fill="#000000" transform="matrix(1.00, 0.00, -0.00, -1.00, 437.7, 384.4)">:</text><text xml:space="preserve" font-family="GillSans,Gill Sans" font-size="32.0" fill="#000000" transform="matrix(1.00, 0.00, -0.00, -1.00, 441.6, 384.4)"> </text><text xml:space="preserve" font-family="GillSans,Gill Sans" font-size="32.0" fill="#000000" transform="matrix(1.00, 0.00, -0.00, -1.00, 450.4, 384.4)">7</text><text xml:space="preserve" font-family="GillSans,Gill Sans" font-size="32.0" fill="#000000" transform="matrix(1.00, 0.00, -0.00, -1.00, 466.4, 384.4)"> </text><text xml:space="preserve" font-family="GillSans,Gill Sans" font-size="32.0" fill="#000000" transform="matrix(1.00, 0.00, -0.00, -1.00, 475.3, 384.4)">s</text><text xml:space="preserve" font-family="GillSans,Gill Sans" font-size="32.0" fill="#000000" transform="matrix(1.00, 0.00, -0.00, -1.00, 487.6, 384.4)">t</text><text xml:space="preserve" font-family="GillSans,Gill Sans" font-size="32.0" fill="#000000" transform="matrix(1.00, 0.00, -0.00, -1.00, 498.3, 384.4)">r</text><text xml:space="preserve" font-family="GillSans,Gill Sans" font-size="32.0" fill="#000000" transform="matrix(1.00, 0.00, -0.00, -1.00, 510.3, 384.4)">e</text><text xml:space="preserve" font-family="GillSans,Gill Sans" font-size="32.0" fill="#000000" transform="matrix(1.00, 0.00, -0.00, -1.00, 525.6, 384.4)">a</text><text xml:space="preserve" font-family="GillSans,Gill Sans" font-size="32.0" fill="#000000" transform="matrix(1.00, 0.00, -0.00, -1.00, 539.3, 384.4)">m</text><text xml:space="preserve" font-family="GillSans,Gill Sans" font-size="32.0" fill="#000000" transform="matrix(1.00, 0.00, -0.00, -1.00, 564.0, 384.4)">s</text><text xml:space="preserve" font-family="GillSans,Gill Sans" font-size="32.0" fill="#000000" transform="matrix(1.00, 0.00, -0.00, -1.00, 576.3, 384.4)"> </text><text xml:space="preserve" font-family="GillSans,Gill Sans" font-size="32.0" fill="#000000" transform="matrix(1.00, 0.00, -0.00, -1.00, 585.2, 384.4)">@</text><text xml:space="preserve" font-family="GillSans,Gill Sans" font-size="32.0" fill="#000000" transform="matrix(1.00, 0.00, -0.00, -1.00, 617.5, 384.4)"> </text><text xml:space="preserve" font-family="GillSans,Gill Sans" font-size="32.0" fill="#000000" transform="matrix(1.00, 0.00, -0.00, -1.00, 626.4, 384.4)">2</text><text xml:space="preserve" font-family="GillSans,Gill Sans" font-size="32.0" fill="#000000" transform="matrix(1.00, 0.00, -0.00, -1.00, 642.4, 384.4)">8</text><text xml:space="preserve" font-family="GillSans,Gill Sans" font-size="32.0" fill="#000000" transform="matrix(1.00, 0.00, -0.00, -1.00, 658.4, 384.4)">+</text><text xml:space="preserve" font-family="GillSans,Gill Sans" font-size="32.0" fill="#000000" transform="matrix(1.00, 0.00, -0.00, -1.00, 677.0, 384.4)"> </text><text xml:space="preserve" font-family="GillSans,Gill Sans" font-size="32.0" fill="#000000" transform="matrix(1.00, 0.00, -0.00, -1.00, 685.9, 384.4)">o</text><text xml:space="preserve" font-family="GillSans,Gill Sans" font-size="32.0" fill="#000000" transform="matrix(1.00, 0.00, -0.00, -1.00, 703.6, 384.4)">n</text><text xml:space="preserve" font-family="GillSans,Gill Sans" font-size="32.0" fill="#000000" transform="matrix(1.00, 0.00, -0.00, -1.00, 719.6, 384.4)">e</text><text xml:space="preserve" font-family="GillSans,Gill Sans" font-size="32.0" fill="#000000" transform="matrix(1.00, 0.00, -0.00, -1.00, 734.9, 384.4)"> </text><text xml:space="preserve" font-family="GillSans,Gill Sans" font-size="32.0" fill="#000000" transform="matrix(1.00, 0.00, -0.00, -1.00, 743.8, 384.4)">@</text><text xml:space="preserve" font-family="GillSans,Gill Sans" font-size="32.0" fill="#000000" transform="matrix(1.00, 0.00, -0.00, -1.00, 776.1, 384.4)"> </text><text xml:space="preserve" font-family="GillSans,Gill Sans" font-size="32.0" fill="#000000" transform="matrix(1.00, 0.00, -0.00, -1.00, 785.0, 384.4)">1</text><text xml:space="preserve" font-family="GillSans,Gill Sans" font-size="32.0" fill="#000000" transform="matrix(1.00, 0.00, -0.00, -1.00, 801.0, 384.4)">4</text><text xml:space="preserve" font-family="GillSans,Gill Sans" font-size="32.0" fill="#000000" transform="matrix(1.00, 0.00, -0.00, -1.00, 817.0, 384.4)"> </text><text xml:space="preserve" font-family="GillSans,Gill Sans" font-size="32.0" fill="#000000" transform="matrix(1.00, 0.00, -0.00, -1.00, 825.9, 384.4)">=</text><text xml:space="preserve" font-family="GillSans,Gill Sans" font-size="32.0" fill="#000000" transform="matrix(1.00, 0.00, -0.00, -1.00, 844.5, 384.4)"> </text><text xml:space="preserve" font-family="GillSans,Gill Sans" font-size="32.0" fill="#000000" transform="matrix(1.00, 0.00, -0.00, -1.00, 853.4, 384.4)">2</text><text xml:space="preserve" font-family="GillSans,Gill Sans" font-size="32.0" fill="#000000" transform="matrix(1.00, 0.00, -0.00, -1.00, 869.4, 384.4)">1</text><text xml:space="preserve" font-family="GillSans,Gill Sans" font-size="32.0" fill="#000000" transform="matrix(1.00, 0.00, -0.00, -1.00, 885.4, 384.4)">0</text><text xml:space="preserve" font-family="GillSans,Gill Sans" font-size="32.0" fill="#000000" transform="matrix(1.00, 0.00, -0.00, -1.00, 901.4, 384.4)"> </text><text xml:space="preserve" font-family="GillSans,Gill Sans" font-size="32.0" fill="#000000" transform="matrix(1.00, 0.00, -0.00, -1.00, 910.3, 384.4)">	</text><text xml:space="preserve" font-family="GillSans,Gill Sans" font-size="32.0" fill="#000000" transform="matrix(1.00, 0.00, -0.00, -1.00, 938.3, 384.4)">
</text><text xml:space="preserve" font-family="GillSans,Gill Sans" font-size="32.0" fill="#000000" transform="matrix(1.00, 0.00, -0.00, -1.00, 938.3, 384.4)"></text><text xml:space="preserve" font-family="GillSans,Gill Sans" font-size="32.0" fill="#000000" transform="matrix(1.00, 0.00, -0.00, -1.00, 469.2, 264.4)">1</text><text xml:space="preserve" font-family="GillSans,Gill Sans" font-size="32.0" fill="#000000" transform="matrix(1.00, 0.00, -0.00, -1.00, 485.2, 264.4)">0</text><text xml:space="preserve" font-family="GillSans,Gill Sans" font-size="32.0" fill="#000000" transform="matrix(1.00, 0.00, -0.00, -1.00, 501.2, 264.4)">0</text><text xml:space="preserve" font-family="GillSans,Gill Sans" font-size="32.0" fill="#000000" transform="matrix(1.00, 0.00, -0.00, -1.00, 517.2, 264.4)">b</text><text xml:space="preserve" font-family="GillSans,Gill Sans" font-size="32.0" fill="#000000" transform="matrix(1.00, 0.00, -0.00, -1.00, 533.2, 264.4)">a</text><text xml:space="preserve" font-family="GillSans,Gill Sans" font-size="32.0" fill="#000000" transform="matrix(1.00, 0.00, -0.00, -1.00, 546.8, 264.4)">s</text><text xml:space="preserve" font-family="GillSans,Gill Sans" font-size="32.0" fill="#000000" transform="matrix(1.00, 0.00, -0.00, -1.00, 559.1, 264.4)">e</text><text xml:space="preserve" font-family="GillSans,Gill Sans" font-size="32.0" fill="#000000" transform="matrix(1.00, 0.00, -0.00, -1.00, 574.4, 264.4)">T</text><text xml:space="preserve" font-family="GillSans,Gill Sans" font-size="32.0" fill="#000000" transform="matrix(1.00, 0.00, -0.00, -1.00, 592.8, 264.4)">:</text><text xml:space="preserve" font-family="GillSans,Gill Sans" font-size="32.0" fill="#000000" transform="matrix(1.00, 0.00, -0.00, -1.00, 599.8, 264.4)">	</text><text xml:space="preserve" font-family="GillSans,Gill Sans" font-size="32.0" fill="#000000" transform="matrix(1.00, 0.00, -0.00, -1.00, 627.8, 264.4)">
</text><text xml:space="preserve" font-family="GillSans,Gill Sans" font-size="32.0" fill="#000000" transform="matrix(1.00, 0.00, -0.00, -1.00, 627.8, 264.4)"></text><text xml:space="preserve" font-family="GillSans,Gill Sans" font-size="32.0" fill="#000000" transform="matrix(1.00, 0.00, -0.00, -1.00, 230.4, 204.4)">4</text><text xml:space="preserve" font-family="GillSans,Gill Sans" font-size="32.0" fill="#000000" transform="matrix(1.00, 0.00, -0.00, -1.00, 246.4, 204.4)">8</text><text xml:space="preserve" font-family="GillSans,Gill Sans" font-size="32.0" fill="#000000" transform="matrix(1.00, 0.00, -0.00, -1.00, 262.4, 204.4)"> </text><text xml:space="preserve" font-family="GillSans,Gill Sans" font-size="32.0" fill="#000000" transform="matrix(1.00, 0.00, -0.00, -1.00, 271.3, 204.4)">K</text><text xml:space="preserve" font-family="GillSans,Gill Sans" font-size="32.0" fill="#000000" transform="matrix(1.00, 0.00, -0.00, -1.00, 292.3, 204.4)">H</text><text xml:space="preserve" font-family="GillSans,Gill Sans" font-size="32.0" fill="#000000" transform="matrix(1.00, 0.00, -0.00, -1.00, 315.6, 204.4)">z</text><text xml:space="preserve" font-family="GillSans,Gill Sans" font-size="32.0" fill="#000000" transform="matrix(1.00, 0.00, -0.00, -1.00, 328.9, 204.4)"> </text><text xml:space="preserve" font-family="GillSans,Gill Sans" font-size="32.0" fill="#000000" transform="matrix(1.00, 0.00, -0.00, -1.00, 337.8, 204.4)">(</text><text xml:space="preserve" font-family="GillSans,Gill Sans" font-size="32.0" fill="#000000" transform="matrix(1.00, 0.00, -0.00, -1.00, 348.2, 204.4)">7</text><text xml:space="preserve" font-family="GillSans,Gill Sans" font-size="32.0" fill="#000000" transform="matrix(1.00, 0.00, -0.00, -1.00, 364.2, 204.4)"> </text><text xml:space="preserve" font-family="GillSans,Gill Sans" font-size="32.0" fill="#000000" transform="matrix(1.00, 0.00, -0.00, -1.00, 373.1, 204.4)">s</text><text xml:space="preserve" font-family="GillSans,Gill Sans" font-size="32.0" fill="#000000" transform="matrix(1.00, 0.00, -0.00, -1.00, 385.4, 204.4)">a</text><text xml:space="preserve" font-family="GillSans,Gill Sans" font-size="32.0" fill="#000000" transform="matrix(1.00, 0.00, -0.00, -1.00, 399.0, 204.4)">m</text><text xml:space="preserve" font-family="GillSans,Gill Sans" font-size="32.0" fill="#000000" transform="matrix(1.00, 0.00, -0.00, -1.00, 423.7, 204.4)">p</text><text xml:space="preserve" font-family="GillSans,Gill Sans" font-size="32.0" fill="#000000" transform="matrix(1.00, 0.00, -0.00, -1.00, 439.7, 204.4)">l</text><text xml:space="preserve" font-family="GillSans,Gill Sans" font-size="32.0" fill="#000000" transform="matrix(1.00, 0.00, -0.00, -1.00, 446.7, 204.4)">e</text><text xml:space="preserve" font-family="GillSans,Gill Sans" font-size="32.0" fill="#000000" transform="matrix(1.00, 0.00, -0.00, -1.00, 462.0, 204.4)">s</text><text xml:space="preserve" font-family="GillSans,Gill Sans" font-size="32.0" fill="#000000" transform="matrix(1.00, 0.00, -0.00, -1.00, 474.3, 204.4)">)</text><text xml:space="preserve" font-family="GillSans,Gill Sans" font-size="32.0" fill="#000000" transform="matrix(1.00, 0.00, -0.00, -1.00, 484.7, 204.4)">:</text><text xml:space="preserve" font-family="GillSans,Gill Sans" font-size="32.0" fill="#000000" transform="matrix(1.00, 0.00, -0.00, -1.00, 488.5, 204.4)"> </text><text xml:space="preserve" font-family="GillSans,Gill Sans" font-size="32.0" fill="#000000" transform="matrix(1.00, 0.00, -0.00, -1.00, 497.4, 204.4)">o</text><text xml:space="preserve" font-family="GillSans,Gill Sans" font-size="32.0" fill="#000000" transform="matrix(1.00, 0.00, -0.00, -1.00, 515.0, 204.4)">n</text><text xml:space="preserve" font-family="GillSans,Gill Sans" font-size="32.0" fill="#000000" transform="matrix(1.00, 0.00, -0.00, -1.00, 531.0, 204.4)">e</text><text xml:space="preserve" font-family="GillSans,Gill Sans" font-size="32.0" fill="#000000" transform="matrix(1.00, 0.00, -0.00, -1.00, 546.4, 204.4)"> </text><text xml:space="preserve" font-family="GillSans,Gill Sans" font-size="32.0" fill="#000000" transform="matrix(1.00, 0.00, -0.00, -1.00, 555.3, 204.4)">s</text><text xml:space="preserve" font-family="GillSans,Gill Sans" font-size="32.0" fill="#000000" transform="matrix(1.00, 0.00, -0.00, -1.00, 567.6, 204.4)">t</text><text xml:space="preserve" font-family="GillSans,Gill Sans" font-size="32.0" fill="#000000" transform="matrix(1.00, 0.00, -0.00, -1.00, 578.2, 204.4)">r</text><text xml:space="preserve" font-family="GillSans,Gill Sans" font-size="32.0" fill="#000000" transform="matrix(1.00, 0.00, -0.00, -1.00, 590.2, 204.4)">e</text><text xml:space="preserve" font-family="GillSans,Gill Sans" font-size="32.0" fill="#000000" transform="matrix(1.00, 0.00, -0.00, -1.00, 605.6, 204.4)">a</text><text xml:space="preserve" font-family="GillSans,Gill Sans" font-size="32.0" fill="#000000" transform="matrix(1.00, 0.00, -0.00, -1.00, 619.2, 204.4)">m</text><text xml:space="preserve" font-family="GillSans,Gill Sans" font-size="32.0" fill="#000000" transform="matrix(1.00, 0.00, -0.00, -1.00, 643.9, 204.4)"> </text><text xml:space="preserve" font-family="GillSans,Gill Sans" font-size="32.0" fill="#000000" transform="matrix(1.00, 0.00, -0.00, -1.00, 652.8, 204.4)">o</text><text xml:space="preserve" font-family="GillSans,Gill Sans" font-size="32.0" fill="#000000" transform="matrix(1.00, 0.00, -0.00, -1.00, 670.4, 204.4)">f</text><text xml:space="preserve" font-family="GillSans,Gill Sans" font-size="32.0" fill="#000000" transform="matrix(1.00, 0.00, -0.00, -1.00, 678.4, 204.4)"> </text><text xml:space="preserve" font-family="GillSans,Gill Sans" font-size="32.0" fill="#000000" transform="matrix(1.00, 0.00, -0.00, -1.00, 687.3, 204.4)">3</text><text xml:space="preserve" font-family="GillSans,Gill Sans" font-size="32.0" fill="#000000" transform="matrix(1.00, 0.00, -0.00, -1.00, 703.3, 204.4)">9</text><text xml:space="preserve" font-family="GillSans,Gill Sans" font-size="32.0" fill="#000000" transform="matrix(1.00, 0.00, -0.00, -1.00, 719.3, 204.4)"> </text><text xml:space="preserve" font-family="GillSans,Gill Sans" font-size="32.0" fill="#000000" transform="matrix(1.00, 0.00, -0.00, -1.00, 728.2, 204.4)">c</text><text xml:space="preserve" font-family="GillSans,Gill Sans" font-size="32.0" fill="#000000" transform="matrix(1.00, 0.00, -0.00, -1.00, 742.2, 204.4)">h</text><text xml:space="preserve" font-family="GillSans,Gill Sans" font-size="32.0" fill="#000000" transform="matrix(1.00, 0.00, -0.00, -1.00, 758.2, 204.4)">a</text><text xml:space="preserve" font-family="GillSans,Gill Sans" font-size="32.0" fill="#000000" transform="matrix(1.00, 0.00, -0.00, -1.00, 771.9, 204.4)">n</text><text xml:space="preserve" font-family="GillSans,Gill Sans" font-size="32.0" fill="#000000" transform="matrix(1.00, 0.00, -0.00, -1.00, 787.9, 204.4)">n</text><text xml:space="preserve" font-family="GillSans,Gill Sans" font-size="32.0" fill="#000000" transform="matrix(1.00, 0.00, -0.00, -1.00, 803.9, 204.4)">e</text><text xml:space="preserve" font-family="GillSans,Gill Sans" font-size="32.0" fill="#000000" transform="matrix(1.00, 0.00, -0.00, -1.00, 819.2, 204.4)">l</text><text xml:space="preserve" font-family="GillSans,Gill Sans" font-size="32.0" fill="#000000" transform="matrix(1.00, 0.00, -0.00, -1.00, 826.2, 204.4)">s</text><text xml:space="preserve" font-family="GillSans,Gill Sans" font-size="32.0" fill="#000000" transform="matrix(1.00, 0.00, -0.00, -1.00, 838.5, 204.4)">	</text><text xml:space="preserve" font-family="GillSans,Gill Sans" font-size="32.0" fill="#000000" transform="matrix(1.00, 0.00, -0.00, -1.00, 866.5, 204.4)">
</text><text xml:space="preserve" font-family="GillSans,Gill Sans" font-size="32.0" fill="#000000" transform="matrix(1.00, 0.00, -0.00, -1.00, 866.5, 204.4)"></text><text xml:space="preserve" font-family="GillSans,Gill Sans" font-size="32.0" fill="#000000" transform="matrix(1.00, 0.00, -0.00, -1.00, 222.4, 144.4)">9</text><text xml:space="preserve" font-family="GillSans,Gill Sans" font-size="32.0" fill="#000000" transform="matrix(1.00, 0.00, -0.00, -1.00, 238.4, 144.4)">6</text><text xml:space="preserve" font-family="GillSans,Gill Sans" font-size="32.0" fill="#000000" transform="matrix(1.00, 0.00, -0.00, -1.00, 254.4, 144.4)"> </text><text xml:space="preserve" font-family="GillSans,Gill Sans" font-size="32.0" fill="#000000" transform="matrix(1.00, 0.00, -0.00, -1.00, 263.3, 144.4)">K</text><text xml:space="preserve" font-family="GillSans,Gill Sans" font-size="32.0" fill="#000000" transform="matrix(1.00, 0.00, -0.00, -1.00, 284.3, 144.4)">H</text><text xml:space="preserve" font-family="GillSans,Gill Sans" font-size="32.0" fill="#000000" transform="matrix(1.00, 0.00, -0.00, -1.00, 307.6, 144.4)">z</text><text xml:space="preserve" font-family="GillSans,Gill Sans" font-size="32.0" fill="#000000" transform="matrix(1.00, 0.00, -0.00, -1.00, 320.9, 144.4)"> </text><text xml:space="preserve" font-family="GillSans,Gill Sans" font-size="32.0" fill="#000000" transform="matrix(1.00, 0.00, -0.00, -1.00, 329.8, 144.4)">(</text><text xml:space="preserve" font-family="GillSans,Gill Sans" font-size="32.0" fill="#000000" transform="matrix(1.00, 0.00, -0.00, -1.00, 340.2, 144.4)">1</text><text xml:space="preserve" font-family="GillSans,Gill Sans" font-size="32.0" fill="#000000" transform="matrix(1.00, 0.00, -0.00, -1.00, 356.2, 144.4)">3</text><text xml:space="preserve" font-family="GillSans,Gill Sans" font-size="32.0" fill="#000000" transform="matrix(1.00, 0.00, -0.00, -1.00, 372.2, 144.4)"> </text><text xml:space="preserve" font-family="GillSans,Gill Sans" font-size="32.0" fill="#000000" transform="matrix(1.00, 0.00, -0.00, -1.00, 381.1, 144.4)">s</text><text xml:space="preserve" font-family="GillSans,Gill Sans" font-size="32.0" fill="#000000" transform="matrix(1.00, 0.00, -0.00, -1.00, 393.4, 144.4)">a</text><text xml:space="preserve" font-family="GillSans,Gill Sans" font-size="32.0" fill="#000000" transform="matrix(1.00, 0.00, -0.00, -1.00, 407.0, 144.4)">m</text><text xml:space="preserve" font-family="GillSans,Gill Sans" font-size="32.0" fill="#000000" transform="matrix(1.00, 0.00, -0.00, -1.00, 431.7, 144.4)">p</text><text xml:space="preserve" font-family="GillSans,Gill Sans" font-size="32.0" fill="#000000" transform="matrix(1.00, 0.00, -0.00, -1.00, 447.7, 144.4)">l</text><text xml:space="preserve" font-family="GillSans,Gill Sans" font-size="32.0" fill="#000000" transform="matrix(1.00, 0.00, -0.00, -1.00, 454.7, 144.4)">e</text><text xml:space="preserve" font-family="GillSans,Gill Sans" font-size="32.0" fill="#000000" transform="matrix(1.00, 0.00, -0.00, -1.00, 470.0, 144.4)">s</text><text xml:space="preserve" font-family="GillSans,Gill Sans" font-size="32.0" fill="#000000" transform="matrix(1.00, 0.00, -0.00, -1.00, 482.3, 144.4)">)</text><text xml:space="preserve" font-family="GillSans,Gill Sans" font-size="32.0" fill="#000000" transform="matrix(1.00, 0.00, -0.00, -1.00, 492.7, 144.4)">:</text><text xml:space="preserve" font-family="GillSans,Gill Sans" font-size="32.0" fill="#000000" transform="matrix(1.00, 0.00, -0.00, -1.00, 496.5, 144.4)"> </text><text xml:space="preserve" font-family="GillSans,Gill Sans" font-size="32.0" fill="#000000" transform="matrix(1.00, 0.00, -0.00, -1.00, 505.4, 144.4)">o</text><text xml:space="preserve" font-family="GillSans,Gill Sans" font-size="32.0" fill="#000000" transform="matrix(1.00, 0.00, -0.00, -1.00, 523.0, 144.4)">n</text><text xml:space="preserve" font-family="GillSans,Gill Sans" font-size="32.0" fill="#000000" transform="matrix(1.00, 0.00, -0.00, -1.00, 539.0, 144.4)">e</text><text xml:space="preserve" font-family="GillSans,Gill Sans" font-size="32.0" fill="#000000" transform="matrix(1.00, 0.00, -0.00, -1.00, 554.4, 144.4)"> </text><text xml:space="preserve" font-family="GillSans,Gill Sans" font-size="32.0" fill="#000000" transform="matrix(1.00, 0.00, -0.00, -1.00, 563.3, 144.4)">s</text><text xml:space="preserve" font-family="GillSans,Gill Sans" font-size="32.0" fill="#000000" transform="matrix(1.00, 0.00, -0.00, -1.00, 575.6, 144.4)">t</text><text xml:space="preserve" font-family="GillSans,Gill Sans" font-size="32.0" fill="#000000" transform="matrix(1.00, 0.00, -0.00, -1.00, 586.2, 144.4)">r</text><text xml:space="preserve" font-family="GillSans,Gill Sans" font-size="32.0" fill="#000000" transform="matrix(1.00, 0.00, -0.00, -1.00, 598.2, 144.4)">e</text><text xml:space="preserve" font-family="GillSans,Gill Sans" font-size="32.0" fill="#000000" transform="matrix(1.00, 0.00, -0.00, -1.00, 613.6, 144.4)">a</text><text xml:space="preserve" font-family="GillSans,Gill Sans" font-size="32.0" fill="#000000" transform="matrix(1.00, 0.00, -0.00, -1.00, 627.2, 144.4)">m</text><text xml:space="preserve" font-family="GillSans,Gill Sans" font-size="32.0" fill="#000000" transform="matrix(1.00, 0.00, -0.00, -1.00, 651.9, 144.4)"> </text><text xml:space="preserve" font-family="GillSans,Gill Sans" font-size="32.0" fill="#000000" transform="matrix(1.00, 0.00, -0.00, -1.00, 660.8, 144.4)">o</text><text xml:space="preserve" font-family="GillSans,Gill Sans" font-size="32.0" fill="#000000" transform="matrix(1.00, 0.00, -0.00, -1.00, 678.4, 144.4)">f</text><text xml:space="preserve" font-family="GillSans,Gill Sans" font-size="32.0" fill="#000000" transform="matrix(1.00, 0.00, -0.00, -1.00, 686.4, 144.4)"> </text><text xml:space="preserve" font-family="GillSans,Gill Sans" font-size="32.0" fill="#000000" transform="matrix(1.00, 0.00, -0.00, -1.00, 695.3, 144.4)">2</text><text xml:space="preserve" font-family="GillSans,Gill Sans" font-size="32.0" fill="#000000" transform="matrix(1.00, 0.00, -0.00, -1.00, 711.3, 144.4)">1</text><text xml:space="preserve" font-family="GillSans,Gill Sans" font-size="32.0" fill="#000000" transform="matrix(1.00, 0.00, -0.00, -1.00, 727.3, 144.4)"> </text><text xml:space="preserve" font-family="GillSans,Gill Sans" font-size="32.0" fill="#000000" transform="matrix(1.00, 0.00, -0.00, -1.00, 736.2, 144.4)">c</text><text xml:space="preserve" font-family="GillSans,Gill Sans" font-size="32.0" fill="#000000" transform="matrix(1.00, 0.00, -0.00, -1.00, 750.2, 144.4)">h</text><text xml:space="preserve" font-family="GillSans,Gill Sans" font-size="32.0" fill="#000000" transform="matrix(1.00, 0.00, -0.00, -1.00, 766.2, 144.4)">a</text><text xml:space="preserve" font-family="GillSans,Gill Sans" font-size="32.0" fill="#000000" transform="matrix(1.00, 0.00, -0.00, -1.00, 779.9, 144.4)">n</text><text xml:space="preserve" font-family="GillSans,Gill Sans" font-size="32.0" fill="#000000" transform="matrix(1.00, 0.00, -0.00, -1.00, 795.9, 144.4)">n</text><text xml:space="preserve" font-family="GillSans,Gill Sans" font-size="32.0" fill="#000000" transform="matrix(1.00, 0.00, -0.00, -1.00, 811.9, 144.4)">e</text><text xml:space="preserve" font-family="GillSans,Gill Sans" font-size="32.0" fill="#000000" transform="matrix(1.00, 0.00, -0.00, -1.00, 827.2, 144.4)">l</text><text xml:space="preserve" font-family="GillSans,Gill Sans" font-size="32.0" fill="#000000" transform="matrix(1.00, 0.00, -0.00, -1.00, 834.2, 144.4)">s</text><text xml:space="preserve" font-family="GillSans,Gill Sans" font-size="32.0" fill="#000000" transform="matrix(1.00, 0.00, -0.00, -1.00, 846.5, 144.4)">	</text><text xml:space="preserve" font-family="GillSans,Gill Sans" font-size="32.0" fill="#000000" transform="matrix(1.00, 0.00, -0.00, -1.00, 874.5, 144.4)">
</text><text xml:space="preserve" font-family="GillSans,Gill Sans" font-size="32.0" fill="#000000" transform="matrix(1.00, 0.00, -0.00, -1.00, 874.5, 144.4)"></text></g></svg>