<?xml version="1.0" encoding="UTF-8" standalone="no"?><svg xmlns="http://www.w3.org/2000/svg" xmlns:xlink="http://www.w3.org/1999/xlink" clip-rule="evenodd" stroke-miterlimit="10" viewBox="0 0 1024 768"><desc>SVG generated by Keynote</desc><defs></defs><g transform="matrix(1.00, 0.00, -0.00, -1.00, 0.0, 768.0)"><g><clipPath id="clip0x600000ab5720"><path d="M 0.0 768.0 L 1024.0 768.0 L 1024.0 0.0 L 0.0 0.0 Z M 0.0 768.0 "></path></clipPath><g clip-path="url(#clip0x600000ab5720)"><image xlink:href="../../D6BA4055-94D5-4435-8F94-2B12B05BE35D/assets/BD7081C45D061393604842EE23F15602.jpeg" width="1024.00" height="768.00" transform="matrix(1.00, 0.00, -0.00, -1.00, 0.0, 768.0)"></image></g></g><g opacity="0.45"><g><clipPath id="clip0x608000aa3840"><path d="M 0.0 0.0 L 1024.0 0.0 L 1024.0 768.0 L 0.0 768.0 Z M 0.0 0.0 "></path></clipPath><g clip-path="url(#clip0x608000aa3840)"><image xlink:href="../../D6BA4055-94D5-4435-8F94-2B12B05BE35D/assets/43C205575475996EB74B305E796123B9.png" width="44.00" height="6.00" transform="matrix(0.00, -1.00, -1.00, 0.00, 924.0, 745.0)"></image><path d="M 0.0 0.0 L 40.0 0.0 " fill="none" stroke="#000000" stroke-width="2.00" transform="matrix(0.00, -1.00, -1.00, 0.00, 921.0, 745.0)"></path></g></g></g><g opacity="0.60"><g><clipPath id="clip0x608000aa3600"><path d="M 0.0 0.0 L 1024.0 0.0 L 1024.0 768.0 L 0.0 768.0 Z M 0.0 0.0 "></path></clipPath><g clip-path="url(#clip0x608000aa3600)"><image xlink:href="../../D6BA4055-94D5-4435-8F94-2B12B05BE35D/assets/84E1D2A8729F0AA5F0515D07025067FB.png" width="31.00" height="31.00" transform="matrix(1.00, 0.00, -0.00, -1.00, 941.0, 742.0)" opacity="0.80"></image><path d="M 954.0 720.0 L 954.0 712.0 L 970.0 725.5 L 954.0 739.0 L 954.0 731.0 L 943.0 731.0 L 943.0 720.0 Z M 954.0 720.0 " fill="#FFFFFF"></path></g></g></g><g opacity="0.60"><g><clipPath id="clip0x608000aa3d20"><path d="M 0.0 0.0 L 1024.0 0.0 L 1024.0 768.0 L 0.0 768.0 Z M 0.0 0.0 "></path></clipPath><g clip-path="url(#clip0x608000aa3d20)"><image xlink:href="../../D6BA4055-94D5-4435-8F94-2B12B05BE35D/assets/115227F07B60D39A99AEDB43FBD1EDDA.png" width="31.00" height="31.00" transform="matrix(1.00, 0.00, -0.00, -1.00, 870.0, 742.0)" opacity="0.80"></image><path d="M 888.0 720.0 L 888.0 712.0 L 872.0 725.5 L 888.0 739.0 L 888.0 731.0 L 899.0 731.0 L 899.0 720.0 Z M 888.0 720.0 " fill="#FFFFFF"></path></g></g></g><g opacity="0.60"><g><clipPath id="clip0x608000aa4080"><path d="M 0.0 0.0 L 1024.0 0.0 L 1024.0 768.0 L 0.0 768.0 Z M 0.0 0.0 "></path></clipPath><g clip-path="url(#clip0x608000aa4080)"><image xlink:href="../../D6BA4055-94D5-4435-8F94-2B12B05BE35D/assets/DB7D83AEDC566E9086A7A25E97A2FBDB.png" width="32.00" height="32.00" transform="matrix(1.00, 0.00, -0.00, -1.00, 51.0, 741.0)" opacity="0.80"></image><image xlink:href="../../D6BA4055-94D5-4435-8F94-2B12B05BE35D/assets/51907E0A5389CEAE4968AE218E13605B.png" width="28.00" height="28.00" transform="matrix(1.00, 0.00, -0.00, -1.00, 53.0, 738.0)"></image></g></g></g><text xml:space="preserve" font-family="Futura-Medium,Futura" font-size="49.0" fill="#B5B8B9" transform="matrix(1.00, 0.00, -0.00, -1.00, 160.9, 598.2)">F</text><text xml:space="preserve" font-family="Futura-Medium,Futura" font-size="49.0" fill="#B5B8B9" transform="matrix(1.00, 0.00, -0.00, -1.00, 185.5, 598.2)">a</text><text xml:space="preserve" font-family="Futura-Medium,Futura" font-size="49.0" fill="#B5B8B9" transform="matrix(1.00, 0.00, -0.00, -1.00, 214.9, 598.2)">s</text><text xml:space="preserve" font-family="Futura-Medium,Futura" font-size="49.0" fill="#B5B8B9" transform="matrix(1.00, 0.00, -0.00, -1.00, 234.8, 598.2)">t</text><text xml:space="preserve" font-family="Futura-Medium,Futura" font-size="49.0" fill="#B5B8B9" transform="matrix(1.00, 0.00, -0.00, -1.00, 248.2, 598.2)">E</text><text xml:space="preserve" font-family="Futura-Medium,Futura" font-size="49.0" fill="#B5B8B9" transform="matrix(1.00, 0.00, -0.00, -1.00, 275.9, 598.2)"> </text><text xml:space="preserve" font-family="Futura-Medium,Futura" font-size="49.0" fill="#B5B8B9" transform="matrix(1.00, 0.00, -0.00, -1.00, 291.0, 598.2)">M</text><text xml:space="preserve" font-family="Futura-Medium,Futura" font-size="49.0" fill="#B5B8B9" transform="matrix(1.00, 0.00, -0.00, -1.00, 338.1, 598.2)">a</text><text xml:space="preserve" font-family="Futura-Medium,Futura" font-size="49.0" fill="#B5B8B9" transform="matrix(1.00, 0.00, -0.00, -1.00, 367.5, 598.2)">x</text><text xml:space="preserve" font-family="Futura-Medium,Futura" font-size="49.0" fill="#B5B8B9" transform="matrix(1.00, 0.00, -0.00, -1.00, 394.9, 598.2)"> </text><text xml:space="preserve" font-family="Futura-Medium,Futura" font-size="49.0" fill="#B5B8B9" transform="matrix(1.00, 0.00, -0.00, -1.00, 410.0, 598.2)">C</text><text xml:space="preserve" font-family="Futura-Medium,Futura" font-size="49.0" fill="#B5B8B9" transform="matrix(1.00, 0.00, -0.00, -1.00, 444.3, 598.2)">h</text><text xml:space="preserve" font-family="Futura-Medium,Futura" font-size="49.0" fill="#B5B8B9" transform="matrix(1.00, 0.00, -0.00, -1.00, 471.2, 598.2)">a</text><text xml:space="preserve" font-family="Futura-Medium,Futura" font-size="49.0" fill="#B5B8B9" transform="matrix(1.00, 0.00, -0.00, -1.00, 500.5, 598.2)">n</text><text xml:space="preserve" font-family="Futura-Medium,Futura" font-size="49.0" fill="#B5B8B9" transform="matrix(1.00, 0.00, -0.00, -1.00, 527.4, 598.2)">n</text><text xml:space="preserve" font-family="Futura-Medium,Futura" font-size="49.0" fill="#B5B8B9" transform="matrix(1.00, 0.00, -0.00, -1.00, 554.3, 598.2)">e</text><text xml:space="preserve" font-family="Futura-Medium,Futura" font-size="49.0" fill="#B5B8B9" transform="matrix(1.00, 0.00, -0.00, -1.00, 581.4, 598.2)">l</text><text xml:space="preserve" font-family="Futura-Medium,Futura" font-size="49.0" fill="#B5B8B9" transform="matrix(1.00, 0.00, -0.00, -1.00, 593.6, 598.2)">s</text><text xml:space="preserve" font-family="Futura-Medium,Futura" font-size="49.0" fill="#B5B8B9" transform="matrix(1.00, 0.00, -0.00, -1.00, 613.5, 598.2)"> </text><text xml:space="preserve" font-family="Futura-Medium,Futura" font-size="49.0" fill="#B5B8B9" transform="matrix(1.00, 0.00, -0.00, -1.00, 628.6, 598.2)">p</text><text xml:space="preserve" font-family="Futura-Medium,Futura" font-size="49.0" fill="#B5B8B9" transform="matrix(1.00, 0.00, -0.00, -1.00, 657.9, 598.2)">e</text><text xml:space="preserve" font-family="Futura-Medium,Futura" font-size="49.0" fill="#B5B8B9" transform="matrix(1.00, 0.00, -0.00, -1.00, 685.1, 598.2)">r</text><text xml:space="preserve" font-family="Futura-Medium,Futura" font-size="49.0" fill="#B5B8B9" transform="matrix(1.00, 0.00, -0.00, -1.00, 703.4, 598.2)"> </text><text xml:space="preserve" font-family="Futura-Medium,Futura" font-size="49.0" fill="#B5B8B9" transform="matrix(1.00, 0.00, -0.00, -1.00, 718.5, 598.2)">s</text><text xml:space="preserve" font-family="Futura-Medium,Futura" font-size="49.0" fill="#B5B8B9" transform="matrix(1.00, 0.00, -0.00, -1.00, 738.4, 598.2)">t</text><text xml:space="preserve" font-family="Futura-Medium,Futura" font-size="49.0" fill="#B5B8B9" transform="matrix(1.00, 0.00, -0.00, -1.00, 751.8, 598.2)">r</text><text xml:space="preserve" font-family="Futura-Medium,Futura" font-size="49.0" fill="#B5B8B9" transform="matrix(1.00, 0.00, -0.00, -1.00, 769.8, 598.2)">e</text><text xml:space="preserve" font-family="Futura-Medium,Futura" font-size="49.0" fill="#B5B8B9" transform="matrix(1.00, 0.00, -0.00, -1.00, 796.9, 598.2)">a</text><text xml:space="preserve" font-family="Futura-Medium,Futura" font-size="49.0" fill="#B5B8B9" transform="matrix(1.00, 0.00, -0.00, -1.00, 826.3, 598.2)">m</text><text xml:space="preserve" font-family="GillSans,Gill Sans" font-size="42.0" fill="#000000" transform="matrix(1.00, 0.00, -0.00, -1.00, 202.4, 502.7)">1</text><text xml:space="preserve" font-family="GillSans,Gill Sans" font-size="42.0" fill="#000000" transform="matrix(1.00, 0.00, -0.00, -1.00, 223.4, 502.7)">1</text><text xml:space="preserve" font-family="GillSans,Gill Sans" font-size="42.0" fill="#000000" transform="matrix(1.00, 0.00, -0.00, -1.00, 244.4, 502.7)">7</text><text xml:space="preserve" font-family="GillSans,Gill Sans" font-size="42.0" fill="#000000" transform="matrix(1.00, 0.00, -0.00, -1.00, 265.4, 502.7)">1</text><text xml:space="preserve" font-family="GillSans,Gill Sans" font-size="42.0" fill="#000000" transform="matrix(1.00, 0.00, -0.00, -1.00, 286.4, 502.7)"> </text><text xml:space="preserve" font-family="GillSans,Gill Sans" font-size="42.0" fill="#000000" transform="matrix(1.00, 0.00, -0.00, -1.00, 298.0, 502.7)">-</text><text xml:space="preserve" font-family="GillSans,Gill Sans" font-size="42.0" fill="#000000" transform="matrix(1.00, 0.00, -0.00, -1.00, 311.6, 502.7)">1</text><text xml:space="preserve" font-family="GillSans,Gill Sans" font-size="42.0" fill="#000000" transform="matrix(1.00, 0.00, -0.00, -1.00, 332.6, 502.7)"> </text><text xml:space="preserve" font-family="GillSans,Gill Sans" font-size="42.0" fill="#000000" transform="matrix(1.00, 0.00, -0.00, -1.00, 344.3, 502.7)">-</text><text xml:space="preserve" font-family="GillSans,Gill Sans" font-size="42.0" fill="#000000" transform="matrix(1.00, 0.00, -0.00, -1.00, 357.9, 502.7)"> </text><text xml:space="preserve" font-family="GillSans,Gill Sans" font-size="42.0" fill="#000000" transform="matrix(1.00, 0.00, -0.00, -1.00, 369.5, 502.7)">(</text><text xml:space="preserve" font-family="GillSans,Gill Sans" font-size="42.0" fill="#000000" transform="matrix(1.00, 0.00, -0.00, -1.00, 383.1, 502.7)">2</text><text xml:space="preserve" font-family="GillSans,Gill Sans" font-size="42.0" fill="#000000" transform="matrix(1.00, 0.00, -0.00, -1.00, 404.1, 502.7)">4</text><text xml:space="preserve" font-family="GillSans,Gill Sans" font-size="42.0" fill="#000000" transform="matrix(1.00, 0.00, -0.00, -1.00, 425.1, 502.7)">+</text><text xml:space="preserve" font-family="GillSans,Gill Sans" font-size="42.0" fill="#000000" transform="matrix(1.00, 0.00, -0.00, -1.00, 449.6, 502.7)">1</text><text xml:space="preserve" font-family="GillSans,Gill Sans" font-size="42.0" fill="#000000" transform="matrix(1.00, 0.00, -0.00, -1.00, 470.6, 502.7)">8</text><text xml:space="preserve" font-family="GillSans,Gill Sans" font-size="42.0" fill="#000000" transform="matrix(1.00, 0.00, -0.00, -1.00, 491.6, 502.7)">+</text><text xml:space="preserve" font-family="GillSans,Gill Sans" font-size="42.0" fill="#000000" transform="matrix(1.00, 0.00, -0.00, -1.00, 516.2, 502.7)">2</text><text xml:space="preserve" font-family="GillSans,Gill Sans" font-size="42.0" fill="#000000" transform="matrix(1.00, 0.00, -0.00, -1.00, 537.2, 502.7)">4</text><text xml:space="preserve" font-family="GillSans,Gill Sans" font-size="42.0" fill="#000000" transform="matrix(1.00, 0.00, -0.00, -1.00, 558.2, 502.7)">+</text><text xml:space="preserve" font-family="GillSans,Gill Sans" font-size="42.0" fill="#000000" transform="matrix(1.00, 0.00, -0.00, -1.00, 582.7, 502.7)">8</text><text xml:space="preserve" font-family="GillSans,Gill Sans" font-size="42.0" fill="#000000" transform="matrix(1.00, 0.00, -0.00, -1.00, 603.7, 502.7)">)</text><text xml:space="preserve" font-family="GillSans,Gill Sans" font-size="42.0" fill="#000000" transform="matrix(1.00, 0.00, -0.00, -1.00, 617.3, 502.7)"> </text><text xml:space="preserve" font-family="GillSans,Gill Sans" font-size="42.0" fill="#000000" transform="matrix(1.00, 0.00, -0.00, -1.00, 628.9, 502.7)">=</text><text xml:space="preserve" font-family="GillSans,Gill Sans" font-size="42.0" fill="#000000" transform="matrix(1.00, 0.00, -0.00, -1.00, 653.5, 502.7)"> </text><text xml:space="preserve" font-family="GillSans,Gill Sans" font-size="42.0" fill="#000000" transform="matrix(1.00, 0.00, -0.00, -1.00, 665.1, 502.7)">1</text><text xml:space="preserve" font-family="GillSans,Gill Sans" font-size="42.0" fill="#000000" transform="matrix(1.00, 0.00, -0.00, -1.00, 686.1, 502.7)">0</text><text xml:space="preserve" font-family="GillSans,Gill Sans" font-size="42.0" fill="#000000" transform="matrix(1.00, 0.00, -0.00, -1.00, 707.1, 502.7)">9</text><text xml:space="preserve" font-family="GillSans,Gill Sans" font-size="42.0" fill="#000000" transform="matrix(1.00, 0.00, -0.00, -1.00, 728.1, 502.7)">6</text><text xml:space="preserve" font-family="GillSans,Gill Sans" font-size="42.0" fill="#000000" transform="matrix(1.00, 0.00, -0.00, -1.00, 749.1, 502.7)"> </text><text xml:space="preserve" font-family="GillSans,Gill Sans" font-size="42.0" fill="#000000" transform="matrix(1.00, 0.00, -0.00, -1.00, 760.8, 502.7)">o</text><text xml:space="preserve" font-family="GillSans,Gill Sans" font-size="42.0" fill="#000000" transform="matrix(1.00, 0.00, -0.00, -1.00, 784.0, 502.7)">c</text><text xml:space="preserve" font-family="GillSans,Gill Sans" font-size="42.0" fill="#000000" transform="matrix(1.00, 0.00, -0.00, -1.00, 802.3, 502.7)">t</text><text xml:space="preserve" font-family="GillSans,Gill Sans" font-size="42.0" fill="#000000" transform="matrix(1.00, 0.00, -0.00, -1.00, 816.3, 502.7)">e</text><text xml:space="preserve" font-family="GillSans,Gill Sans" font-size="42.0" fill="#000000" transform="matrix(1.00, 0.00, -0.00, -1.00, 836.5, 502.7)">t</text><text xml:space="preserve" font-family="GillSans,Gill Sans" font-size="42.0" fill="#000000" transform="matrix(1.00, 0.00, -0.00, -1.00, 850.4, 502.7)">s</text><text xml:space="preserve" font-family="GillSans,Gill Sans" font-size="42.0" fill="#000000" transform="matrix(1.00, 0.00, -0.00, -1.00, 866.6, 502.7)">	</text><text xml:space="preserve" font-family="GillSans,Gill Sans" font-size="42.0" fill="#000000" transform="matrix(1.00, 0.00, -0.00, -1.00, 894.6, 502.7)">
</text><text xml:space="preserve" font-family="GillSans,Gill Sans" font-size="42.0" fill="#000000" transform="matrix(1.00, 0.00, -0.00, -1.00, 894.6, 502.7)"></text><text xml:space="preserve" font-family="GillSans,Gill Sans" font-size="42.0" fill="#000000" transform="matrix(1.00, 0.00, -0.00, -1.00, 420.7, 429.7)">1</text><text xml:space="preserve" font-family="GillSans,Gill Sans" font-size="42.0" fill="#000000" transform="matrix(1.00, 0.00, -0.00, -1.00, 441.7, 429.7)">0</text><text xml:space="preserve" font-family="GillSans,Gill Sans" font-size="42.0" fill="#000000" transform="matrix(1.00, 0.00, -0.00, -1.00, 462.7, 429.7)">9</text><text xml:space="preserve" font-family="GillSans,Gill Sans" font-size="42.0" fill="#000000" transform="matrix(1.00, 0.00, -0.00, -1.00, 483.7, 429.7)">6</text><text xml:space="preserve" font-family="GillSans,Gill Sans" font-size="42.0" fill="#000000" transform="matrix(1.00, 0.00, -0.00, -1.00, 504.7, 429.7)">/</text><text xml:space="preserve" font-family="GillSans,Gill Sans" font-size="42.0" fill="#000000" transform="matrix(1.00, 0.00, -0.00, -1.00, 516.5, 429.7)">4</text><text xml:space="preserve" font-family="GillSans,Gill Sans" font-size="42.0" fill="#000000" transform="matrix(1.00, 0.00, -0.00, -1.00, 537.5, 429.7)"> </text><text xml:space="preserve" font-family="GillSans,Gill Sans" font-size="42.0" fill="#000000" transform="matrix(1.00, 0.00, -0.00, -1.00, 549.1, 429.7)">=</text><text xml:space="preserve" font-family="GillSans,Gill Sans" font-size="42.0" fill="#000000" transform="matrix(1.00, 0.00, -0.00, -1.00, 573.6, 429.7)"> </text><text xml:space="preserve" font-family="GillSans,Gill Sans" font-size="42.0" fill="#000000" transform="matrix(1.00, 0.00, -0.00, -1.00, 585.3, 429.7)">2</text><text xml:space="preserve" font-family="GillSans,Gill Sans" font-size="42.0" fill="#000000" transform="matrix(1.00, 0.00, -0.00, -1.00, 606.3, 429.7)">7</text><text xml:space="preserve" font-family="GillSans,Gill Sans" font-size="42.0" fill="#000000" transform="matrix(1.00, 0.00, -0.00, -1.00, 627.3, 429.7)">4</text><text xml:space="preserve" font-family="GillSans,Gill Sans" font-size="42.0" fill="#000000" transform="matrix(1.00, 0.00, -0.00, -1.00, 648.3, 429.7)">	</text><text xml:space="preserve" font-family="GillSans,Gill Sans" font-size="42.0" fill="#000000" transform="matrix(1.00, 0.00, -0.00, -1.00, 676.3, 429.7)">
</text><text xml:space="preserve" font-family="GillSans,Gill Sans" font-size="42.0" fill="#000000" transform="matrix(1.00, 0.00, -0.00, -1.00, 676.3, 429.7)"></text><text xml:space="preserve" font-family="GillSans,Gill Sans" font-size="42.0" fill="#000000" transform="matrix(1.00, 0.00, -0.00, -1.00, 449.8, 283.7)">t</text><text xml:space="preserve" font-family="GillSans,Gill Sans" font-size="42.0" fill="#000000" transform="matrix(1.00, 0.00, -0.00, -1.00, 463.8, 283.7)">h</text><text xml:space="preserve" font-family="GillSans,Gill Sans" font-size="42.0" fill="#000000" transform="matrix(1.00, 0.00, -0.00, -1.00, 484.8, 283.7)">e</text><text xml:space="preserve" font-family="GillSans,Gill Sans" font-size="42.0" fill="#000000" transform="matrix(1.00, 0.00, -0.00, -1.00, 504.9, 283.7)">r</text><text xml:space="preserve" font-family="GillSans,Gill Sans" font-size="42.0" fill="#000000" transform="matrix(1.00, 0.00, -0.00, -1.00, 520.7, 283.7)">e</text><text xml:space="preserve" font-family="GillSans,Gill Sans" font-size="42.0" fill="#000000" transform="matrix(1.00, 0.00, -0.00, -1.00, 540.8, 283.7)">f</text><text xml:space="preserve" font-family="GillSans,Gill Sans" font-size="42.0" fill="#000000" transform="matrix(1.00, 0.00, -0.00, -1.00, 550.9, 283.7)">o</text><text xml:space="preserve" font-family="GillSans,Gill Sans" font-size="42.0" fill="#000000" transform="matrix(1.00, 0.00, -0.00, -1.00, 574.1, 283.7)">r</text><text xml:space="preserve" font-family="GillSans,Gill Sans" font-size="42.0" fill="#000000" transform="matrix(1.00, 0.00, -0.00, -1.00, 589.9, 283.7)">e</text><text xml:space="preserve" font-family="GillSans,Gill Sans" font-size="42.0" fill="#000000" transform="matrix(1.00, 0.00, -0.00, -1.00, 610.0, 283.7)">:</text><text xml:space="preserve" font-family="GillSans,Gill Sans" font-size="42.0" fill="#000000" transform="matrix(1.00, 0.00, -0.00, -1.00, 619.2, 283.7)">	</text><text xml:space="preserve" font-family="GillSans,Gill Sans" font-size="42.0" fill="#000000" transform="matrix(1.00, 0.00, -0.00, -1.00, 647.2, 283.7)">
</text><text xml:space="preserve" font-family="GillSans,Gill Sans" font-size="42.0" fill="#000000" transform="matrix(1.00, 0.00, -0.00, -1.00, 647.2, 283.7)"></text><text xml:space="preserve" font-family="GillSans,Gill Sans" font-size="42.0" fill="#000000" transform="matrix(1.00, 0.00, -0.00, -1.00, 214.3, 210.7)"> </text><text xml:space="preserve" font-family="GillSans,Gill Sans" font-size="42.0" fill="#000000" transform="matrix(1.00, 0.00, -0.00, -1.00, 226.0, 210.7)">(</text><text xml:space="preserve" font-family="GillSans,Gill Sans" font-size="42.0" fill="#000000" transform="matrix(1.00, 0.00, -0.00, -1.00, 239.5, 210.7)">c</text><text xml:space="preserve" font-family="GillSans,Gill Sans" font-size="42.0" fill="#000000" transform="matrix(1.00, 0.00, -0.00, -1.00, 257.9, 210.7)">h</text><text xml:space="preserve" font-family="GillSans,Gill Sans" font-size="42.0" fill="#000000" transform="matrix(1.00, 0.00, -0.00, -1.00, 278.9, 210.7)">a</text><text xml:space="preserve" font-family="GillSans,Gill Sans" font-size="42.0" fill="#000000" transform="matrix(1.00, 0.00, -0.00, -1.00, 296.9, 210.7)">n</text><text xml:space="preserve" font-family="GillSans,Gill Sans" font-size="42.0" fill="#000000" transform="matrix(1.00, 0.00, -0.00, -1.00, 317.9, 210.7)">n</text><text xml:space="preserve" font-family="GillSans,Gill Sans" font-size="42.0" fill="#000000" transform="matrix(1.00, 0.00, -0.00, -1.00, 338.9, 210.7)">e</text><text xml:space="preserve" font-family="GillSans,Gill Sans" font-size="42.0" fill="#000000" transform="matrix(1.00, 0.00, -0.00, -1.00, 359.0, 210.7)">l</text><text xml:space="preserve" font-family="GillSans,Gill Sans" font-size="42.0" fill="#000000" transform="matrix(1.00, 0.00, -0.00, -1.00, 368.2, 210.7)">s</text><text xml:space="preserve" font-family="GillSans,Gill Sans" font-size="42.0" fill="#000000" transform="matrix(1.00, 0.00, -0.00, -1.00, 384.3, 210.7)"> </text><text xml:space="preserve" font-family="GillSans,Gill Sans" font-size="42.0" fill="#000000" transform="matrix(1.00, 0.00, -0.00, -1.00, 396.0, 210.7)">*</text><text xml:space="preserve" font-family="GillSans,Gill Sans" font-size="42.0" fill="#000000" transform="matrix(1.00, 0.00, -0.00, -1.00, 413.5, 210.7)"> </text><text xml:space="preserve" font-family="GillSans,Gill Sans" font-size="42.0" fill="#000000" transform="matrix(1.00, 0.00, -0.00, -1.00, 425.2, 210.7)">s</text><text xml:space="preserve" font-family="GillSans,Gill Sans" font-size="42.0" fill="#000000" transform="matrix(1.00, 0.00, -0.00, -1.00, 441.3, 210.7)">a</text><text xml:space="preserve" font-family="GillSans,Gill Sans" font-size="42.0" fill="#000000" transform="matrix(1.00, 0.00, -0.00, -1.00, 459.2, 210.7)">m</text><text xml:space="preserve" font-family="GillSans,Gill Sans" font-size="42.0" fill="#000000" transform="matrix(1.00, 0.00, -0.00, -1.00, 491.6, 210.7)">p</text><text xml:space="preserve" font-family="GillSans,Gill Sans" font-size="42.0" fill="#000000" transform="matrix(1.00, 0.00, -0.00, -1.00, 512.6, 210.7)">l</text><text xml:space="preserve" font-family="GillSans,Gill Sans" font-size="42.0" fill="#000000" transform="matrix(1.00, 0.00, -0.00, -1.00, 521.8, 210.7)">e</text><text xml:space="preserve" font-family="GillSans,Gill Sans" font-size="42.0" fill="#000000" transform="matrix(1.00, 0.00, -0.00, -1.00, 542.0, 210.7)">s</text><text xml:space="preserve" font-family="GillSans,Gill Sans" font-size="42.0" fill="#000000" transform="matrix(1.00, 0.00, -0.00, -1.00, 558.1, 210.7)">)</text><text xml:space="preserve" font-family="GillSans,Gill Sans" font-size="42.0" fill="#000000" transform="matrix(1.00, 0.00, -0.00, -1.00, 571.7, 210.7)"> </text><text xml:space="preserve" font-family="GillSans,Gill Sans" font-size="42.0" fill="#000000" transform="matrix(1.00, 0.00, -0.00, -1.00, 583.4, 210.7)">m</text><text xml:space="preserve" font-family="GillSans,Gill Sans" font-size="42.0" fill="#000000" transform="matrix(1.00, 0.00, -0.00, -1.00, 615.3, 210.7)">u</text><text xml:space="preserve" font-family="GillSans,Gill Sans" font-size="42.0" fill="#000000" transform="matrix(1.00, 0.00, -0.00, -1.00, 636.3, 210.7)">s</text><text xml:space="preserve" font-family="GillSans,Gill Sans" font-size="42.0" fill="#000000" transform="matrix(1.00, 0.00, -0.00, -1.00, 652.5, 210.7)">t</text><text xml:space="preserve" font-family="GillSans,Gill Sans" font-size="42.0" fill="#000000" transform="matrix(1.00, 0.00, -0.00, -1.00, 666.5, 210.7)"> </text><text xml:space="preserve" font-family="GillSans,Gill Sans" font-size="42.0" fill="#000000" transform="matrix(1.00, 0.00, -0.00, -1.00, 678.1, 210.7)">b</text><text xml:space="preserve" font-family="GillSans,Gill Sans" font-size="42.0" fill="#000000" transform="matrix(1.00, 0.00, -0.00, -1.00, 699.1, 210.7)">e</text><text xml:space="preserve" font-family="GillSans,Gill Sans" font-size="42.0" fill="#000000" transform="matrix(1.00, 0.00, -0.00, -1.00, 719.2, 210.7)"> </text><text xml:space="preserve" font-family="GillSans,Gill Sans" font-size="42.0" fill="#000000" transform="matrix(1.00, 0.00, -0.00, -1.00, 730.9, 210.7)">&lt;</text><text xml:space="preserve" font-family="GillSans,Gill Sans" font-size="42.0" fill="#000000" transform="matrix(1.00, 0.00, -0.00, -1.00, 755.4, 210.7)">=</text><text xml:space="preserve" font-family="GillSans,Gill Sans" font-size="42.0" fill="#000000" transform="matrix(1.00, 0.00, -0.00, -1.00, 780.0, 210.7)"> </text><text xml:space="preserve" font-family="GillSans,Gill Sans" font-size="42.0" fill="#000000" transform="matrix(1.00, 0.00, -0.00, -1.00, 791.6, 210.7)">2</text><text xml:space="preserve" font-family="GillSans,Gill Sans" font-size="42.0" fill="#000000" transform="matrix(1.00, 0.00, -0.00, -1.00, 812.6, 210.7)">7</text><text xml:space="preserve" font-family="GillSans,Gill Sans" font-size="42.0" fill="#000000" transform="matrix(1.00, 0.00, -0.00, -1.00, 833.6, 210.7)">4</text><text xml:space="preserve" font-family="GillSans,Gill Sans" font-size="42.0" fill="#000000" transform="matrix(1.00, 0.00, -0.00, -1.00, 854.6, 210.7)">	</text><text xml:space="preserve" font-family="GillSans,Gill Sans" font-size="42.0" fill="#000000" transform="matrix(1.00, 0.00, -0.00, -1.00, 882.6, 210.7)">
</text><text xml:space="preserve" font-family="GillSans,Gill Sans" font-size="42.0" fill="#000000" transform="matrix(1.00, 0.00, -0.00, -1.00, 882.6, 210.7)"></text></g></svg>