<?xml version="1.0" encoding="UTF-8" standalone="no"?><svg xmlns="http://www.w3.org/2000/svg" xmlns:xlink="http://www.w3.org/1999/xlink" clip-rule="evenodd" stroke-miterlimit="10" viewBox="0 0 1024 768"><desc>SVG generated by Keynote</desc><defs></defs><g transform="matrix(1.00, 0.00, -0.00, -1.00, 0.0, 768.0)"><g><clipPath id="clip0x600000cba580"><path d="M 0.0 768.0 L 1024.0 768.0 L 1024.0 0.0 L 0.0 0.0 Z M 0.0 768.0 "></path></clipPath><g clip-path="url(#clip0x600000cba580)"><image xlink:href="../../D6BA4055-94D5-4435-8F94-2B12B05BE35D/assets/BD7081C45D061393604842EE23F15602.jpeg" width="1024.00" height="768.00" transform="matrix(1.00, 0.00, -0.00, -1.00, 0.0, 768.0)"></image></g></g><g opacity="0.45"><g><clipPath id="clip0x608000ca4380"><path d="M 0.0 0.0 L 1024.0 0.0 L 1024.0 768.0 L 0.0 768.0 Z M 0.0 0.0 "></path></clipPath><g clip-path="url(#clip0x608000ca4380)"><image xlink:href="../../D6BA4055-94D5-4435-8F94-2B12B05BE35D/assets/43C205575475996EB74B305E796123B9.png" width="44.00" height="6.00" transform="matrix(0.00, -1.00, -1.00, 0.00, 924.0, 745.0)"></image><path d="M 0.0 0.0 L 40.0 0.0 " fill="none" stroke="#000000" stroke-width="2.00" transform="matrix(0.00, -1.00, -1.00, 0.00, 921.0, 745.0)"></path></g></g></g><g opacity="0.60"><g><clipPath id="clip0x608000ca56a0"><path d="M 0.0 0.0 L 1024.0 0.0 L 1024.0 768.0 L 0.0 768.0 Z M 0.0 0.0 "></path></clipPath><g clip-path="url(#clip0x608000ca56a0)"><image xlink:href="../../D6BA4055-94D5-4435-8F94-2B12B05BE35D/assets/84E1D2A8729F0AA5F0515D07025067FB.png" width="31.00" height="31.00" transform="matrix(1.00, 0.00, -0.00, -1.00, 941.0, 742.0)" opacity="0.80"></image><path d="M 954.0 720.0 L 954.0 712.0 L 970.0 725.5 L 954.0 739.0 L 954.0 731.0 L 943.0 731.0 L 943.0 720.0 Z M 954.0 720.0 " fill="#FFFFFF"></path></g></g></g><g opacity="0.60"><g><clipPath id="clip0x608000ca5a00"><path d="M 0.0 0.0 L 1024.0 0.0 L 1024.0 768.0 L 0.0 768.0 Z M 0.0 0.0 "></path></clipPath><g clip-path="url(#clip0x608000ca5a00)"><image xlink:href="../../D6BA4055-94D5-4435-8F94-2B12B05BE35D/assets/115227F07B60D39A99AEDB43FBD1EDDA.png" width="31.00" height="31.00" transform="matrix(1.00, 0.00, -0.00, -1.00, 870.0, 742.0)" opacity="0.80"></image><path d="M 888.0 720.0 L 888.0 712.0 L 872.0 725.5 L 888.0 739.0 L 888.0 731.0 L 899.0 731.0 L 899.0 720.0 Z M 888.0 720.0 " fill="#FFFFFF"></path></g></g></g><g opacity="0.60"><g><clipPath id="clip0x608000ca5d60"><path d="M 0.0 0.0 L 1024.0 0.0 L 1024.0 768.0 L 0.0 768.0 Z M 0.0 0.0 "></path></clipPath><g clip-path="url(#clip0x608000ca5d60)"><image xlink:href="../../D6BA4055-94D5-4435-8F94-2B12B05BE35D/assets/DB7D83AEDC566E9086A7A25E97A2FBDB.png" width="32.00" height="32.00" transform="matrix(1.00, 0.00, -0.00, -1.00, 51.0, 741.0)" opacity="0.80"></image><image xlink:href="../../D6BA4055-94D5-4435-8F94-2B12B05BE35D/assets/51907E0A5389CEAE4968AE218E13605B.png" width="28.00" height="28.00" transform="matrix(1.00, 0.00, -0.00, -1.00, 53.0, 738.0)"></image></g></g></g><text xml:space="preserve" font-family="Futura-Medium,Futura" font-size="49.0" fill="#B5B8B9" transform="matrix(1.00, 0.00, -0.00, -1.00, 113.3, 598.2)">M</text><text xml:space="preserve" font-family="Futura-Medium,Futura" font-size="49.0" fill="#B5B8B9" transform="matrix(1.00, 0.00, -0.00, -1.00, 160.4, 598.2)">a</text><text xml:space="preserve" font-family="Futura-Medium,Futura" font-size="49.0" fill="#B5B8B9" transform="matrix(1.00, 0.00, -0.00, -1.00, 189.8, 598.2)">x</text><text xml:space="preserve" font-family="Futura-Medium,Futura" font-size="49.0" fill="#B5B8B9" transform="matrix(1.00, 0.00, -0.00, -1.00, 217.1, 598.2)"> </text><text xml:space="preserve" font-family="Futura-Medium,Futura" font-size="49.0" fill="#B5B8B9" transform="matrix(1.00, 0.00, -0.00, -1.00, 232.2, 598.2)">4</text><text xml:space="preserve" font-family="Futura-Medium,Futura" font-size="49.0" fill="#B5B8B9" transform="matrix(1.00, 0.00, -0.00, -1.00, 262.5, 598.2)">8</text><text xml:space="preserve" font-family="Futura-Medium,Futura" font-size="49.0" fill="#B5B8B9" transform="matrix(1.00, 0.00, -0.00, -1.00, 292.7, 598.2)">K</text><text xml:space="preserve" font-family="Futura-Medium,Futura" font-size="49.0" fill="#B5B8B9" transform="matrix(1.00, 0.00, -0.00, -1.00, 325.2, 598.2)">H</text><text xml:space="preserve" font-family="Futura-Medium,Futura" font-size="49.0" fill="#B5B8B9" transform="matrix(1.00, 0.00, -0.00, -1.00, 361.1, 598.2)">z</text><text xml:space="preserve" font-family="Futura-Medium,Futura" font-size="49.0" fill="#B5B8B9" transform="matrix(1.00, 0.00, -0.00, -1.00, 387.8, 598.2)"> </text><text xml:space="preserve" font-family="Futura-Medium,Futura" font-size="49.0" fill="#B5B8B9" transform="matrix(1.00, 0.00, -0.00, -1.00, 402.9, 598.2)">C</text><text xml:space="preserve" font-family="Futura-Medium,Futura" font-size="49.0" fill="#B5B8B9" transform="matrix(1.00, 0.00, -0.00, -1.00, 437.2, 598.2)">h</text><text xml:space="preserve" font-family="Futura-Medium,Futura" font-size="49.0" fill="#B5B8B9" transform="matrix(1.00, 0.00, -0.00, -1.00, 464.1, 598.2)">a</text><text xml:space="preserve" font-family="Futura-Medium,Futura" font-size="49.0" fill="#B5B8B9" transform="matrix(1.00, 0.00, -0.00, -1.00, 493.4, 598.2)">n</text><text xml:space="preserve" font-family="Futura-Medium,Futura" font-size="49.0" fill="#B5B8B9" transform="matrix(1.00, 0.00, -0.00, -1.00, 520.3, 598.2)">n</text><text xml:space="preserve" font-family="Futura-Medium,Futura" font-size="49.0" fill="#B5B8B9" transform="matrix(1.00, 0.00, -0.00, -1.00, 547.2, 598.2)">e</text><text xml:space="preserve" font-family="Futura-Medium,Futura" font-size="49.0" fill="#B5B8B9" transform="matrix(1.00, 0.00, -0.00, -1.00, 574.3, 598.2)">l</text><text xml:space="preserve" font-family="Futura-Medium,Futura" font-size="49.0" fill="#B5B8B9" transform="matrix(1.00, 0.00, -0.00, -1.00, 586.5, 598.2)">s</text><text xml:space="preserve" font-family="Futura-Medium,Futura" font-size="49.0" fill="#B5B8B9" transform="matrix(1.00, 0.00, -0.00, -1.00, 606.4, 598.2)"> </text><text xml:space="preserve" font-family="Futura-Medium,Futura" font-size="49.0" fill="#B5B8B9" transform="matrix(1.00, 0.00, -0.00, -1.00, 621.5, 598.2)">p</text><text xml:space="preserve" font-family="Futura-Medium,Futura" font-size="49.0" fill="#B5B8B9" transform="matrix(1.00, 0.00, -0.00, -1.00, 650.9, 598.2)">e</text><text xml:space="preserve" font-family="Futura-Medium,Futura" font-size="49.0" fill="#B5B8B9" transform="matrix(1.00, 0.00, -0.00, -1.00, 678.0, 598.2)">r</text><text xml:space="preserve" font-family="Futura-Medium,Futura" font-size="49.0" fill="#B5B8B9" transform="matrix(1.00, 0.00, -0.00, -1.00, 696.3, 598.2)"> </text><text xml:space="preserve" font-family="Futura-Medium,Futura" font-size="49.0" fill="#B5B8B9" transform="matrix(1.00, 0.00, -0.00, -1.00, 711.4, 598.2)">G</text><text xml:space="preserve" font-family="Futura-Medium,Futura" font-size="49.0" fill="#B5B8B9" transform="matrix(1.00, 0.00, -0.00, -1.00, 752.7, 598.2)">i</text><text xml:space="preserve" font-family="Futura-Medium,Futura" font-size="49.0" fill="#B5B8B9" transform="matrix(1.00, 0.00, -0.00, -1.00, 764.9, 598.2)">g</text><text xml:space="preserve" font-family="Futura-Medium,Futura" font-size="49.0" fill="#B5B8B9" transform="matrix(1.00, 0.00, -0.00, -1.00, 794.2, 598.2)">E</text><text xml:space="preserve" font-family="Futura-Medium,Futura" font-size="49.0" fill="#B5B8B9" transform="matrix(1.00, 0.00, -0.00, -1.00, 821.9, 598.2)"> </text><text xml:space="preserve" font-family="Futura-Medium,Futura" font-size="49.0" fill="#B5B8B9" transform="matrix(1.00, 0.00, -0.00, -1.00, 837.0, 598.2)">l</text><text xml:space="preserve" font-family="Futura-Medium,Futura" font-size="49.0" fill="#B5B8B9" transform="matrix(1.00, 0.00, -0.00, -1.00, 849.2, 598.2)">i</text><text xml:space="preserve" font-family="Futura-Medium,Futura" font-size="49.0" fill="#B5B8B9" transform="matrix(1.00, 0.00, -0.00, -1.00, 861.4, 598.2)">n</text><text xml:space="preserve" font-family="Futura-Medium,Futura" font-size="49.0" fill="#B5B8B9" transform="matrix(1.00, 0.00, -0.00, -1.00, 888.3, 598.2)">k</text><text xml:space="preserve" font-family="GillSans,Gill Sans" font-size="42.0" fill="#000000" transform="matrix(1.00, 0.00, -0.00, -1.00, 329.4, 502.7)">7</text><text xml:space="preserve" font-family="GillSans,Gill Sans" font-size="42.0" fill="#000000" transform="matrix(1.00, 0.00, -0.00, -1.00, 350.4, 502.7)">5</text><text xml:space="preserve" font-family="GillSans,Gill Sans" font-size="42.0" fill="#000000" transform="matrix(1.00, 0.00, -0.00, -1.00, 371.4, 502.7)">%</text><text xml:space="preserve" font-family="GillSans,Gill Sans" font-size="42.0" fill="#000000" transform="matrix(1.00, 0.00, -0.00, -1.00, 399.8, 502.7)"> </text><text xml:space="preserve" font-family="GillSans,Gill Sans" font-size="42.0" fill="#000000" transform="matrix(1.00, 0.00, -0.00, -1.00, 411.5, 502.7)">o</text><text xml:space="preserve" font-family="GillSans,Gill Sans" font-size="42.0" fill="#000000" transform="matrix(1.00, 0.00, -0.00, -1.00, 434.6, 502.7)">f</text><text xml:space="preserve" font-family="GillSans,Gill Sans" font-size="42.0" fill="#000000" transform="matrix(1.00, 0.00, -0.00, -1.00, 445.1, 502.7)"> </text><text xml:space="preserve" font-family="GillSans,Gill Sans" font-size="42.0" fill="#000000" transform="matrix(1.00, 0.00, -0.00, -1.00, 456.8, 502.7)">1</text><text xml:space="preserve" font-family="GillSans,Gill Sans" font-size="42.0" fill="#000000" transform="matrix(1.00, 0.00, -0.00, -1.00, 477.8, 502.7)">2</text><text xml:space="preserve" font-family="GillSans,Gill Sans" font-size="42.0" fill="#000000" transform="matrix(1.00, 0.00, -0.00, -1.00, 498.8, 502.7)">5</text><text xml:space="preserve" font-family="GillSans,Gill Sans" font-size="42.0" fill="#000000" transform="matrix(1.00, 0.00, -0.00, -1.00, 519.8, 502.7)">µ</text><text xml:space="preserve" font-family="GillSans,Gill Sans" font-size="42.0" fill="#000000" transform="matrix(1.00, 0.00, -0.00, -1.00, 543.0, 502.7)">s</text><text xml:space="preserve" font-family="GillSans,Gill Sans" font-size="42.0" fill="#000000" transform="matrix(1.00, 0.00, -0.00, -1.00, 559.1, 502.7)"> </text><text xml:space="preserve" font-family="GillSans,Gill Sans" font-size="42.0" fill="#000000" transform="matrix(1.00, 0.00, -0.00, -1.00, 570.8, 502.7)">=</text><text xml:space="preserve" font-family="GillSans,Gill Sans" font-size="42.0" fill="#000000" transform="matrix(1.00, 0.00, -0.00, -1.00, 595.3, 502.7)"> </text><text xml:space="preserve" font-family="GillSans,Gill Sans" font-size="42.0" fill="#000000" transform="matrix(1.00, 0.00, -0.00, -1.00, 607.0, 502.7)">9</text><text xml:space="preserve" font-family="GillSans,Gill Sans" font-size="42.0" fill="#000000" transform="matrix(1.00, 0.00, -0.00, -1.00, 628.0, 502.7)">3</text><text xml:space="preserve" font-family="GillSans,Gill Sans" font-size="42.0" fill="#000000" transform="matrix(1.00, 0.00, -0.00, -1.00, 649.0, 502.7)">.</text><text xml:space="preserve" font-family="GillSans,Gill Sans" font-size="42.0" fill="#000000" transform="matrix(1.00, 0.00, -0.00, -1.00, 658.2, 502.7)">7</text><text xml:space="preserve" font-family="GillSans,Gill Sans" font-size="42.0" fill="#000000" transform="matrix(1.00, 0.00, -0.00, -1.00, 679.2, 502.7)">5</text><text xml:space="preserve" font-family="GillSans,Gill Sans" font-size="42.0" fill="#000000" transform="matrix(1.00, 0.00, -0.00, -1.00, 700.2, 502.7)">µ</text><text xml:space="preserve" font-family="GillSans,Gill Sans" font-size="42.0" fill="#000000" transform="matrix(1.00, 0.00, -0.00, -1.00, 723.3, 502.7)">s</text><text xml:space="preserve" font-family="GillSans,Gill Sans" font-size="42.0" fill="#000000" transform="matrix(1.00, 0.00, -0.00, -1.00, 739.5, 502.7)">	</text><text xml:space="preserve" font-family="GillSans,Gill Sans" font-size="42.0" fill="#000000" transform="matrix(1.00, 0.00, -0.00, -1.00, 767.5, 502.7)">
</text><text xml:space="preserve" font-family="GillSans,Gill Sans" font-size="42.0" fill="#000000" transform="matrix(1.00, 0.00, -0.00, -1.00, 767.5, 502.7)"></text><text xml:space="preserve" font-family="GillSans,Gill Sans" font-size="42.0" fill="#000000" transform="matrix(1.00, 0.00, -0.00, -1.00, 155.1, 429.7)">9</text><text xml:space="preserve" font-family="GillSans,Gill Sans" font-size="42.0" fill="#000000" transform="matrix(1.00, 0.00, -0.00, -1.00, 176.1, 429.7)">3</text><text xml:space="preserve" font-family="GillSans,Gill Sans" font-size="42.0" fill="#000000" transform="matrix(1.00, 0.00, -0.00, -1.00, 197.1, 429.7)">.</text><text xml:space="preserve" font-family="GillSans,Gill Sans" font-size="42.0" fill="#000000" transform="matrix(1.00, 0.00, -0.00, -1.00, 206.3, 429.7)">7</text><text xml:space="preserve" font-family="GillSans,Gill Sans" font-size="42.0" fill="#000000" transform="matrix(1.00, 0.00, -0.00, -1.00, 227.3, 429.7)">5</text><text xml:space="preserve" font-family="GillSans,Gill Sans" font-size="42.0" fill="#000000" transform="matrix(1.00, 0.00, -0.00, -1.00, 248.3, 429.7)"> </text><text xml:space="preserve" font-family="GillSans,Gill Sans" font-size="42.0" fill="#000000" transform="matrix(1.00, 0.00, -0.00, -1.00, 259.9, 429.7)">µ</text><text xml:space="preserve" font-family="GillSans,Gill Sans" font-size="42.0" fill="#000000" transform="matrix(1.00, 0.00, -0.00, -1.00, 283.1, 429.7)">s</text><text xml:space="preserve" font-family="GillSans,Gill Sans" font-size="42.0" fill="#000000" transform="matrix(1.00, 0.00, -0.00, -1.00, 299.2, 429.7)"> </text><text xml:space="preserve" font-family="GillSans,Gill Sans" font-size="42.0" fill="#000000" transform="matrix(1.00, 0.00, -0.00, -1.00, 310.9, 429.7)">/</text><text xml:space="preserve" font-family="GillSans,Gill Sans" font-size="42.0" fill="#000000" transform="matrix(1.00, 0.00, -0.00, -1.00, 322.7, 429.7)"> </text><text xml:space="preserve" font-family="GillSans,Gill Sans" font-size="42.0" fill="#000000" transform="matrix(1.00, 0.00, -0.00, -1.00, 334.4, 429.7)">1</text><text xml:space="preserve" font-family="GillSans,Gill Sans" font-size="42.0" fill="#000000" transform="matrix(1.00, 0.00, -0.00, -1.00, 355.4, 429.7)">2</text><text xml:space="preserve" font-family="GillSans,Gill Sans" font-size="42.0" fill="#000000" transform="matrix(1.00, 0.00, -0.00, -1.00, 376.4, 429.7)">.</text><text xml:space="preserve" font-family="GillSans,Gill Sans" font-size="42.0" fill="#000000" transform="matrix(1.00, 0.00, -0.00, -1.00, 385.6, 429.7)">2</text><text xml:space="preserve" font-family="GillSans,Gill Sans" font-size="42.0" fill="#000000" transform="matrix(1.00, 0.00, -0.00, -1.00, 406.6, 429.7)">4</text><text xml:space="preserve" font-family="GillSans,Gill Sans" font-size="42.0" fill="#000000" transform="matrix(1.00, 0.00, -0.00, -1.00, 427.6, 429.7)">8</text><text xml:space="preserve" font-family="GillSans,Gill Sans" font-size="42.0" fill="#000000" transform="matrix(1.00, 0.00, -0.00, -1.00, 448.6, 429.7)"> </text><text xml:space="preserve" font-family="GillSans,Gill Sans" font-size="42.0" fill="#000000" transform="matrix(1.00, 0.00, -0.00, -1.00, 460.2, 429.7)">µ</text><text xml:space="preserve" font-family="GillSans,Gill Sans" font-size="42.0" fill="#000000" transform="matrix(1.00, 0.00, -0.00, -1.00, 483.4, 429.7)">s</text><text xml:space="preserve" font-family="GillSans,Gill Sans" font-size="42.0" fill="#000000" transform="matrix(1.00, 0.00, -0.00, -1.00, 499.5, 429.7)"> </text><text xml:space="preserve" font-family="GillSans,Gill Sans" font-size="42.0" fill="#000000" transform="matrix(1.00, 0.00, -0.00, -1.00, 511.2, 429.7)">=</text><text xml:space="preserve" font-family="GillSans,Gill Sans" font-size="42.0" fill="#000000" transform="matrix(1.00, 0.00, -0.00, -1.00, 535.7, 429.7)"> </text><text xml:space="preserve" font-family="GillSans,Gill Sans" font-size="42.0" fill="#000000" transform="matrix(1.00, 0.00, -0.00, -1.00, 547.4, 429.7)">7</text><text xml:space="preserve" font-family="GillSans,Gill Sans" font-size="42.0" fill="#000000" transform="matrix(1.00, 0.00, -0.00, -1.00, 568.4, 429.7)">.</text><text xml:space="preserve" font-family="GillSans,Gill Sans" font-size="42.0" fill="#000000" transform="matrix(1.00, 0.00, -0.00, -1.00, 577.6, 429.7)">6</text><text xml:space="preserve" font-family="GillSans,Gill Sans" font-size="42.0" fill="#000000" transform="matrix(1.00, 0.00, -0.00, -1.00, 598.6, 429.7)">5</text><text xml:space="preserve" font-family="GillSans,Gill Sans" font-size="42.0" fill="#000000" transform="matrix(1.00, 0.00, -0.00, -1.00, 619.6, 429.7)"> </text><text xml:space="preserve" font-family="GillSans,Gill Sans" font-size="42.0" fill="#000000" transform="matrix(1.00, 0.00, -0.00, -1.00, 631.3, 429.7)">s</text><text xml:space="preserve" font-family="GillSans,Gill Sans" font-size="42.0" fill="#000000" transform="matrix(1.00, 0.00, -0.00, -1.00, 647.4, 429.7)">t</text><text xml:space="preserve" font-family="GillSans,Gill Sans" font-size="42.0" fill="#000000" transform="matrix(1.00, 0.00, -0.00, -1.00, 661.4, 429.7)">r</text><text xml:space="preserve" font-family="GillSans,Gill Sans" font-size="42.0" fill="#000000" transform="matrix(1.00, 0.00, -0.00, -1.00, 677.2, 429.7)">e</text><text xml:space="preserve" font-family="GillSans,Gill Sans" font-size="42.0" fill="#000000" transform="matrix(1.00, 0.00, -0.00, -1.00, 697.3, 429.7)">a</text><text xml:space="preserve" font-family="GillSans,Gill Sans" font-size="42.0" fill="#000000" transform="matrix(1.00, 0.00, -0.00, -1.00, 715.2, 429.7)">m</text><text xml:space="preserve" font-family="GillSans,Gill Sans" font-size="42.0" fill="#000000" transform="matrix(1.00, 0.00, -0.00, -1.00, 747.6, 429.7)">s</text><text xml:space="preserve" font-family="GillSans,Gill Sans" font-size="42.0" fill="#000000" transform="matrix(1.00, 0.00, -0.00, -1.00, 763.8, 429.7)"> </text><text xml:space="preserve" font-family="GillSans,Gill Sans" font-size="42.0" fill="#000000" transform="matrix(1.00, 0.00, -0.00, -1.00, 775.4, 429.7)">o</text><text xml:space="preserve" font-family="GillSans,Gill Sans" font-size="42.0" fill="#000000" transform="matrix(1.00, 0.00, -0.00, -1.00, 798.6, 429.7)">f</text><text xml:space="preserve" font-family="GillSans,Gill Sans" font-size="42.0" fill="#000000" transform="matrix(1.00, 0.00, -0.00, -1.00, 809.1, 429.7)"> </text><text xml:space="preserve" font-family="GillSans,Gill Sans" font-size="42.0" fill="#000000" transform="matrix(1.00, 0.00, -0.00, -1.00, 820.8, 429.7)">5</text><text xml:space="preserve" font-family="GillSans,Gill Sans" font-size="42.0" fill="#000000" transform="matrix(1.00, 0.00, -0.00, -1.00, 841.8, 429.7)">2</text><text xml:space="preserve" font-family="GillSans,Gill Sans" font-size="42.0" fill="#000000" transform="matrix(1.00, 0.00, -0.00, -1.00, 862.8, 429.7)"> </text><text xml:space="preserve" font-family="GillSans,Gill Sans" font-size="42.0" fill="#000000" transform="matrix(1.00, 0.00, -0.00, -1.00, 874.4, 429.7)">c</text><text xml:space="preserve" font-family="GillSans,Gill Sans" font-size="42.0" fill="#000000" transform="matrix(1.00, 0.00, -0.00, -1.00, 892.8, 429.7)">h</text><text xml:space="preserve" font-family="GillSans,Gill Sans" font-size="42.0" fill="#000000" transform="matrix(1.00, 0.00, -0.00, -1.00, 913.8, 429.7)">	</text><text xml:space="preserve" font-family="GillSans,Gill Sans" font-size="42.0" fill="#000000" transform="matrix(1.00, 0.00, -0.00, -1.00, 941.8, 429.7)">
</text><text xml:space="preserve" font-family="GillSans,Gill Sans" font-size="42.0" fill="#000000" transform="matrix(1.00, 0.00, -0.00, -1.00, 941.8, 429.7)"></text><text xml:space="preserve" font-family="GillSans,Gill Sans" font-size="42.0" fill="#000000" transform="matrix(1.00, 0.00, -0.00, -1.00, 159.9, 356.7)">1</text><text xml:space="preserve" font-family="GillSans,Gill Sans" font-size="42.0" fill="#000000" transform="matrix(1.00, 0.00, -0.00, -1.00, 180.9, 356.7)">2</text><text xml:space="preserve" font-family="GillSans,Gill Sans" font-size="42.0" fill="#000000" transform="matrix(1.00, 0.00, -0.00, -1.00, 201.9, 356.7)">.</text><text xml:space="preserve" font-family="GillSans,Gill Sans" font-size="42.0" fill="#000000" transform="matrix(1.00, 0.00, -0.00, -1.00, 211.2, 356.7)">2</text><text xml:space="preserve" font-family="GillSans,Gill Sans" font-size="42.0" fill="#000000" transform="matrix(1.00, 0.00, -0.00, -1.00, 232.2, 356.7)">4</text><text xml:space="preserve" font-family="GillSans,Gill Sans" font-size="42.0" fill="#000000" transform="matrix(1.00, 0.00, -0.00, -1.00, 253.2, 356.7)">8</text><text xml:space="preserve" font-family="GillSans,Gill Sans" font-size="42.0" fill="#000000" transform="matrix(1.00, 0.00, -0.00, -1.00, 274.2, 356.7)"> </text><text xml:space="preserve" font-family="GillSans,Gill Sans" font-size="42.0" fill="#000000" transform="matrix(1.00, 0.00, -0.00, -1.00, 285.8, 356.7)">µ</text><text xml:space="preserve" font-family="GillSans,Gill Sans" font-size="42.0" fill="#000000" transform="matrix(1.00, 0.00, -0.00, -1.00, 309.0, 356.7)">s</text><text xml:space="preserve" font-family="GillSans,Gill Sans" font-size="42.0" fill="#000000" transform="matrix(1.00, 0.00, -0.00, -1.00, 325.1, 356.7)"> </text><text xml:space="preserve" font-family="GillSans,Gill Sans" font-size="42.0" fill="#000000" transform="matrix(1.00, 0.00, -0.00, -1.00, 336.8, 356.7)">p</text><text xml:space="preserve" font-family="GillSans,Gill Sans" font-size="42.0" fill="#000000" transform="matrix(1.00, 0.00, -0.00, -1.00, 357.8, 356.7)">e</text><text xml:space="preserve" font-family="GillSans,Gill Sans" font-size="42.0" fill="#000000" transform="matrix(1.00, 0.00, -0.00, -1.00, 377.9, 356.7)">r</text><text xml:space="preserve" font-family="GillSans,Gill Sans" font-size="42.0" fill="#000000" transform="matrix(1.00, 0.00, -0.00, -1.00, 394.5, 356.7)"> </text><text xml:space="preserve" font-family="GillSans,Gill Sans" font-size="42.0" fill="#000000" transform="matrix(1.00, 0.00, -0.00, -1.00, 406.2, 356.7)">s</text><text xml:space="preserve" font-family="GillSans,Gill Sans" font-size="42.0" fill="#000000" transform="matrix(1.00, 0.00, -0.00, -1.00, 422.4, 356.7)">t</text><text xml:space="preserve" font-family="GillSans,Gill Sans" font-size="42.0" fill="#000000" transform="matrix(1.00, 0.00, -0.00, -1.00, 436.3, 356.7)">r</text><text xml:space="preserve" font-family="GillSans,Gill Sans" font-size="42.0" fill="#000000" transform="matrix(1.00, 0.00, -0.00, -1.00, 452.1, 356.7)">e</text><text xml:space="preserve" font-family="GillSans,Gill Sans" font-size="42.0" fill="#000000" transform="matrix(1.00, 0.00, -0.00, -1.00, 472.3, 356.7)">a</text><text xml:space="preserve" font-family="GillSans,Gill Sans" font-size="42.0" fill="#000000" transform="matrix(1.00, 0.00, -0.00, -1.00, 490.2, 356.7)">m</text><text xml:space="preserve" font-family="GillSans,Gill Sans" font-size="42.0" fill="#000000" transform="matrix(1.00, 0.00, -0.00, -1.00, 522.6, 356.7)"> </text><text xml:space="preserve" font-family="GillSans,Gill Sans" font-size="42.0" fill="#000000" transform="matrix(1.00, 0.00, -0.00, -1.00, 534.2, 356.7)">*</text><text xml:space="preserve" font-family="GillSans,Gill Sans" font-size="42.0" fill="#000000" transform="matrix(1.00, 0.00, -0.00, -1.00, 551.7, 356.7)"> </text><text xml:space="preserve" font-family="GillSans,Gill Sans" font-size="42.0" fill="#000000" transform="matrix(1.00, 0.00, -0.00, -1.00, 563.4, 356.7)">7</text><text xml:space="preserve" font-family="GillSans,Gill Sans" font-size="42.0" fill="#000000" transform="matrix(1.00, 0.00, -0.00, -1.00, 584.4, 356.7)"> </text><text xml:space="preserve" font-family="GillSans,Gill Sans" font-size="42.0" fill="#000000" transform="matrix(1.00, 0.00, -0.00, -1.00, 596.1, 356.7)">s</text><text xml:space="preserve" font-family="GillSans,Gill Sans" font-size="42.0" fill="#000000" transform="matrix(1.00, 0.00, -0.00, -1.00, 612.2, 356.7)">t</text><text xml:space="preserve" font-family="GillSans,Gill Sans" font-size="42.0" fill="#000000" transform="matrix(1.00, 0.00, -0.00, -1.00, 626.2, 356.7)">r</text><text xml:space="preserve" font-family="GillSans,Gill Sans" font-size="42.0" fill="#000000" transform="matrix(1.00, 0.00, -0.00, -1.00, 642.0, 356.7)">e</text><text xml:space="preserve" font-family="GillSans,Gill Sans" font-size="42.0" fill="#000000" transform="matrix(1.00, 0.00, -0.00, -1.00, 662.1, 356.7)">a</text><text xml:space="preserve" font-family="GillSans,Gill Sans" font-size="42.0" fill="#000000" transform="matrix(1.00, 0.00, -0.00, -1.00, 680.0, 356.7)">m</text><text xml:space="preserve" font-family="GillSans,Gill Sans" font-size="42.0" fill="#000000" transform="matrix(1.00, 0.00, -0.00, -1.00, 712.4, 356.7)">s</text><text xml:space="preserve" font-family="GillSans,Gill Sans" font-size="42.0" fill="#000000" transform="matrix(1.00, 0.00, -0.00, -1.00, 728.5, 356.7)"> </text><text xml:space="preserve" font-family="GillSans,Gill Sans" font-size="42.0" fill="#000000" transform="matrix(1.00, 0.00, -0.00, -1.00, 740.2, 356.7)">=</text><text xml:space="preserve" font-family="GillSans,Gill Sans" font-size="42.0" fill="#000000" transform="matrix(1.00, 0.00, -0.00, -1.00, 764.7, 356.7)"> </text><text xml:space="preserve" font-family="GillSans,Gill Sans" font-size="42.0" fill="#000000" transform="matrix(1.00, 0.00, -0.00, -1.00, 776.4, 356.7)">8</text><text xml:space="preserve" font-family="GillSans,Gill Sans" font-size="42.0" fill="#000000" transform="matrix(1.00, 0.00, -0.00, -1.00, 797.4, 356.7)">5</text><text xml:space="preserve" font-family="GillSans,Gill Sans" font-size="42.0" fill="#000000" transform="matrix(1.00, 0.00, -0.00, -1.00, 818.4, 356.7)">.</text><text xml:space="preserve" font-family="GillSans,Gill Sans" font-size="42.0" fill="#000000" transform="matrix(1.00, 0.00, -0.00, -1.00, 827.6, 356.7)">7</text><text xml:space="preserve" font-family="GillSans,Gill Sans" font-size="42.0" fill="#000000" transform="matrix(1.00, 0.00, -0.00, -1.00, 848.6, 356.7)">3</text><text xml:space="preserve" font-family="GillSans,Gill Sans" font-size="42.0" fill="#000000" transform="matrix(1.00, 0.00, -0.00, -1.00, 869.6, 356.7)">µ</text><text xml:space="preserve" font-family="GillSans,Gill Sans" font-size="42.0" fill="#000000" transform="matrix(1.00, 0.00, -0.00, -1.00, 892.8, 356.7)">s</text><text xml:space="preserve" font-family="GillSans,Gill Sans" font-size="42.0" fill="#000000" transform="matrix(1.00, 0.00, -0.00, -1.00, 908.9, 356.7)">	</text><text xml:space="preserve" font-family="GillSans,Gill Sans" font-size="42.0" fill="#000000" transform="matrix(1.00, 0.00, -0.00, -1.00, 936.9, 356.7)">
</text><text xml:space="preserve" font-family="GillSans,Gill Sans" font-size="42.0" fill="#000000" transform="matrix(1.00, 0.00, -0.00, -1.00, 936.9, 356.7)"></text><text xml:space="preserve" font-family="GillSans,Gill Sans" font-size="42.0" fill="#000000" transform="matrix(1.00, 0.00, -0.00, -1.00, 360.6, 283.7)">7</text><text xml:space="preserve" font-family="GillSans,Gill Sans" font-size="42.0" fill="#000000" transform="matrix(1.00, 0.00, -0.00, -1.00, 381.6, 283.7)">*</text><text xml:space="preserve" font-family="GillSans,Gill Sans" font-size="42.0" fill="#000000" transform="matrix(1.00, 0.00, -0.00, -1.00, 399.1, 283.7)">5</text><text xml:space="preserve" font-family="GillSans,Gill Sans" font-size="42.0" fill="#000000" transform="matrix(1.00, 0.00, -0.00, -1.00, 420.1, 283.7)">2</text><text xml:space="preserve" font-family="GillSans,Gill Sans" font-size="42.0" fill="#000000" transform="matrix(1.00, 0.00, -0.00, -1.00, 441.1, 283.7)"> </text><text xml:space="preserve" font-family="GillSans,Gill Sans" font-size="42.0" fill="#000000" transform="matrix(1.00, 0.00, -0.00, -1.00, 452.7, 283.7)">=</text><text xml:space="preserve" font-family="GillSans,Gill Sans" font-size="42.0" fill="#000000" transform="matrix(1.00, 0.00, -0.00, -1.00, 477.3, 283.7)"> </text><text xml:space="preserve" font-family="GillSans,Gill Sans" font-size="42.0" fill="#000000" transform="matrix(1.00, 0.00, -0.00, -1.00, 488.9, 283.7)">3</text><text xml:space="preserve" font-family="GillSans,Gill Sans" font-size="42.0" fill="#000000" transform="matrix(1.00, 0.00, -0.00, -1.00, 509.9, 283.7)">6</text><text xml:space="preserve" font-family="GillSans,Gill Sans" font-size="42.0" fill="#000000" transform="matrix(1.00, 0.00, -0.00, -1.00, 530.9, 283.7)">4</text><text xml:space="preserve" font-family="GillSans,Gill Sans" font-size="42.0" fill="#000000" transform="matrix(1.00, 0.00, -0.00, -1.00, 551.9, 283.7)"> </text><text xml:space="preserve" font-family="GillSans,Gill Sans" font-size="42.0" fill="#000000" transform="matrix(1.00, 0.00, -0.00, -1.00, 563.6, 283.7)">c</text><text xml:space="preserve" font-family="GillSans,Gill Sans" font-size="42.0" fill="#000000" transform="matrix(1.00, 0.00, -0.00, -1.00, 582.0, 283.7)">h</text><text xml:space="preserve" font-family="GillSans,Gill Sans" font-size="42.0" fill="#000000" transform="matrix(1.00, 0.00, -0.00, -1.00, 603.0, 283.7)">a</text><text xml:space="preserve" font-family="GillSans,Gill Sans" font-size="42.0" fill="#000000" transform="matrix(1.00, 0.00, -0.00, -1.00, 620.9, 283.7)">n</text><text xml:space="preserve" font-family="GillSans,Gill Sans" font-size="42.0" fill="#000000" transform="matrix(1.00, 0.00, -0.00, -1.00, 641.9, 283.7)">n</text><text xml:space="preserve" font-family="GillSans,Gill Sans" font-size="42.0" fill="#000000" transform="matrix(1.00, 0.00, -0.00, -1.00, 662.9, 283.7)">e</text><text xml:space="preserve" font-family="GillSans,Gill Sans" font-size="42.0" fill="#000000" transform="matrix(1.00, 0.00, -0.00, -1.00, 683.0, 283.7)">l</text><text xml:space="preserve" font-family="GillSans,Gill Sans" font-size="42.0" fill="#000000" transform="matrix(1.00, 0.00, -0.00, -1.00, 692.2, 283.7)">s</text><text xml:space="preserve" font-family="GillSans,Gill Sans" font-size="42.0" fill="#000000" transform="matrix(1.00, 0.00, -0.00, -1.00, 708.4, 283.7)">	</text><text xml:space="preserve" font-family="GillSans,Gill Sans" font-size="42.0" fill="#000000" transform="matrix(1.00, 0.00, -0.00, -1.00, 736.4, 283.7)">
</text><text xml:space="preserve" font-family="GillSans,Gill Sans" font-size="42.0" fill="#000000" transform="matrix(1.00, 0.00, -0.00, -1.00, 736.4, 283.7)"></text><text xml:space="preserve" font-family="GillSans,Gill Sans" font-size="42.0" fill="#000000" transform="matrix(1.00, 0.00, -0.00, -1.00, 309.1, 210.7)">B</text><text xml:space="preserve" font-family="GillSans,Gill Sans" font-size="42.0" fill="#000000" transform="matrix(1.00, 0.00, -0.00, -1.00, 332.7, 210.7)">u</text><text xml:space="preserve" font-family="GillSans,Gill Sans" font-size="42.0" fill="#000000" transform="matrix(1.00, 0.00, -0.00, -1.00, 353.7, 210.7)">t</text><text xml:space="preserve" font-family="GillSans,Gill Sans" font-size="42.0" fill="#000000" transform="matrix(1.00, 0.00, -0.00, -1.00, 367.7, 210.7)"> </text><text xml:space="preserve" font-family="GillSans,Gill Sans" font-size="42.0" fill="#000000" transform="matrix(1.00, 0.00, -0.00, -1.00, 379.4, 210.7)">t</text><text xml:space="preserve" font-family="GillSans,Gill Sans" font-size="42.0" fill="#000000" transform="matrix(1.00, 0.00, -0.00, -1.00, 393.4, 210.7)">h</text><text xml:space="preserve" font-family="GillSans,Gill Sans" font-size="42.0" fill="#000000" transform="matrix(1.00, 0.00, -0.00, -1.00, 414.4, 210.7)">e</text><text xml:space="preserve" font-family="GillSans,Gill Sans" font-size="42.0" fill="#000000" transform="matrix(1.00, 0.00, -0.00, -1.00, 434.5, 210.7)">r</text><text xml:space="preserve" font-family="GillSans,Gill Sans" font-size="42.0" fill="#000000" transform="matrix(1.00, 0.00, -0.00, -1.00, 450.3, 210.7)">e</text><text xml:space="preserve" font-family="GillSans,Gill Sans" font-size="42.0" fill="#000000" transform="matrix(1.00, 0.00, -0.00, -1.00, 470.4, 210.7)"> </text><text xml:space="preserve" font-family="GillSans,Gill Sans" font-size="42.0" fill="#000000" transform="matrix(1.00, 0.00, -0.00, -1.00, 482.1, 210.7)">i</text><text xml:space="preserve" font-family="GillSans,Gill Sans" font-size="42.0" fill="#000000" transform="matrix(1.00, 0.00, -0.00, -1.00, 491.3, 210.7)">s</text><text xml:space="preserve" font-family="GillSans,Gill Sans" font-size="42.0" fill="#000000" transform="matrix(1.00, 0.00, -0.00, -1.00, 507.4, 210.7)"> </text><text xml:space="preserve" font-family="GillSans,Gill Sans" font-size="42.0" fill="#000000" transform="matrix(1.00, 0.00, -0.00, -1.00, 519.1, 210.7)">t</text><text xml:space="preserve" font-family="GillSans,Gill Sans" font-size="42.0" fill="#000000" transform="matrix(1.00, 0.00, -0.00, -1.00, 533.1, 210.7)">i</text><text xml:space="preserve" font-family="GillSans,Gill Sans" font-size="42.0" fill="#000000" transform="matrix(1.00, 0.00, -0.00, -1.00, 542.3, 210.7)">m</text><text xml:space="preserve" font-family="GillSans,Gill Sans" font-size="42.0" fill="#000000" transform="matrix(1.00, 0.00, -0.00, -1.00, 574.7, 210.7)">e</text><text xml:space="preserve" font-family="GillSans,Gill Sans" font-size="42.0" fill="#000000" transform="matrix(1.00, 0.00, -0.00, -1.00, 594.8, 210.7)"> </text><text xml:space="preserve" font-family="GillSans,Gill Sans" font-size="42.0" fill="#000000" transform="matrix(1.00, 0.00, -0.00, -1.00, 606.4, 210.7)">l</text><text xml:space="preserve" font-family="GillSans,Gill Sans" font-size="42.0" fill="#000000" transform="matrix(1.00, 0.00, -0.00, -1.00, 615.7, 210.7)">e</text><text xml:space="preserve" font-family="GillSans,Gill Sans" font-size="42.0" fill="#000000" transform="matrix(1.00, 0.00, -0.00, -1.00, 635.8, 210.7)">f</text><text xml:space="preserve" font-family="GillSans,Gill Sans" font-size="42.0" fill="#000000" transform="matrix(1.00, 0.00, -0.00, -1.00, 646.3, 210.7)">t</text><text xml:space="preserve" font-family="GillSans,Gill Sans" font-size="42.0" fill="#000000" transform="matrix(1.00, 0.00, -0.00, -1.00, 660.3, 210.7)"> </text><text xml:space="preserve" font-family="GillSans,Gill Sans" font-size="42.0" fill="#000000" transform="matrix(1.00, 0.00, -0.00, -1.00, 671.9, 210.7)">o</text><text xml:space="preserve" font-family="GillSans,Gill Sans" font-size="42.0" fill="#000000" transform="matrix(1.00, 0.00, -0.00, -1.00, 694.7, 210.7)">v</text><text xml:space="preserve" font-family="GillSans,Gill Sans" font-size="42.0" fill="#000000" transform="matrix(1.00, 0.00, -0.00, -1.00, 712.2, 210.7)">e</text><text xml:space="preserve" font-family="GillSans,Gill Sans" font-size="42.0" fill="#000000" transform="matrix(1.00, 0.00, -0.00, -1.00, 732.4, 210.7)">r</text><text xml:space="preserve" font-family="GillSans,Gill Sans" font-size="42.0" fill="#000000" transform="matrix(1.00, 0.00, -0.00, -1.00, 750.7, 210.7)">:</text><text xml:space="preserve" font-family="GillSans,Gill Sans" font-size="42.0" fill="#000000" transform="matrix(1.00, 0.00, -0.00, -1.00, 759.9, 210.7)">	</text><text xml:space="preserve" font-family="GillSans,Gill Sans" font-size="42.0" fill="#000000" transform="matrix(1.00, 0.00, -0.00, -1.00, 787.9, 210.7)">
</text><text xml:space="preserve" font-family="GillSans,Gill Sans" font-size="42.0" fill="#000000" transform="matrix(1.00, 0.00, -0.00, -1.00, 787.9, 210.7)"></text><text xml:space="preserve" font-family="GillSans,Gill Sans" font-size="42.0" fill="#000000" transform="matrix(1.00, 0.00, -0.00, -1.00, 309.6, 137.7)">9</text><text xml:space="preserve" font-family="GillSans,Gill Sans" font-size="42.0" fill="#000000" transform="matrix(1.00, 0.00, -0.00, -1.00, 330.6, 137.7)">3</text><text xml:space="preserve" font-family="GillSans,Gill Sans" font-size="42.0" fill="#000000" transform="matrix(1.00, 0.00, -0.00, -1.00, 351.6, 137.7)">.</text><text xml:space="preserve" font-family="GillSans,Gill Sans" font-size="42.0" fill="#000000" transform="matrix(1.00, 0.00, -0.00, -1.00, 360.8, 137.7)">7</text><text xml:space="preserve" font-family="GillSans,Gill Sans" font-size="42.0" fill="#000000" transform="matrix(1.00, 0.00, -0.00, -1.00, 381.8, 137.7)">5</text><text xml:space="preserve" font-family="GillSans,Gill Sans" font-size="42.0" fill="#000000" transform="matrix(1.00, 0.00, -0.00, -1.00, 402.8, 137.7)">µ</text><text xml:space="preserve" font-family="GillSans,Gill Sans" font-size="42.0" fill="#000000" transform="matrix(1.00, 0.00, -0.00, -1.00, 426.0, 137.7)">s</text><text xml:space="preserve" font-family="GillSans,Gill Sans" font-size="42.0" fill="#000000" transform="matrix(1.00, 0.00, -0.00, -1.00, 442.2, 137.7)">-</text><text xml:space="preserve" font-family="GillSans,Gill Sans" font-size="42.0" fill="#000000" transform="matrix(1.00, 0.00, -0.00, -1.00, 455.7, 137.7)">8</text><text xml:space="preserve" font-family="GillSans,Gill Sans" font-size="42.0" fill="#000000" transform="matrix(1.00, 0.00, -0.00, -1.00, 476.7, 137.7)">5</text><text xml:space="preserve" font-family="GillSans,Gill Sans" font-size="42.0" fill="#000000" transform="matrix(1.00, 0.00, -0.00, -1.00, 497.7, 137.7)">.</text><text xml:space="preserve" font-family="GillSans,Gill Sans" font-size="42.0" fill="#000000" transform="matrix(1.00, 0.00, -0.00, -1.00, 507.0, 137.7)">7</text><text xml:space="preserve" font-family="GillSans,Gill Sans" font-size="42.0" fill="#000000" transform="matrix(1.00, 0.00, -0.00, -1.00, 528.0, 137.7)">3</text><text xml:space="preserve" font-family="GillSans,Gill Sans" font-size="42.0" fill="#000000" transform="matrix(1.00, 0.00, -0.00, -1.00, 549.0, 137.7)">µ</text><text xml:space="preserve" font-family="GillSans,Gill Sans" font-size="42.0" fill="#000000" transform="matrix(1.00, 0.00, -0.00, -1.00, 572.1, 137.7)">s</text><text xml:space="preserve" font-family="GillSans,Gill Sans" font-size="42.0" fill="#000000" transform="matrix(1.00, 0.00, -0.00, -1.00, 588.3, 137.7)"> </text><text xml:space="preserve" font-family="GillSans,Gill Sans" font-size="42.0" fill="#000000" transform="matrix(1.00, 0.00, -0.00, -1.00, 599.9, 137.7)">=</text><text xml:space="preserve" font-family="GillSans,Gill Sans" font-size="42.0" fill="#000000" transform="matrix(1.00, 0.00, -0.00, -1.00, 624.5, 137.7)"> </text><text xml:space="preserve" font-family="GillSans,Gill Sans" font-size="42.0" fill="#000000" transform="matrix(1.00, 0.00, -0.00, -1.00, 636.1, 137.7)">8</text><text xml:space="preserve" font-family="GillSans,Gill Sans" font-size="42.0" fill="#000000" transform="matrix(1.00, 0.00, -0.00, -1.00, 657.1, 137.7)">.</text><text xml:space="preserve" font-family="GillSans,Gill Sans" font-size="42.0" fill="#000000" transform="matrix(1.00, 0.00, -0.00, -1.00, 666.3, 137.7)">0</text><text xml:space="preserve" font-family="GillSans,Gill Sans" font-size="42.0" fill="#000000" transform="matrix(1.00, 0.00, -0.00, -1.00, 687.3, 137.7)">2</text><text xml:space="preserve" font-family="GillSans,Gill Sans" font-size="42.0" fill="#000000" transform="matrix(1.00, 0.00, -0.00, -1.00, 708.3, 137.7)"> </text><text xml:space="preserve" font-family="GillSans,Gill Sans" font-size="42.0" fill="#000000" transform="matrix(1.00, 0.00, -0.00, -1.00, 720.0, 137.7)">µ</text><text xml:space="preserve" font-family="GillSans,Gill Sans" font-size="42.0" fill="#000000" transform="matrix(1.00, 0.00, -0.00, -1.00, 743.2, 137.7)">s</text><text xml:space="preserve" font-family="GillSans,Gill Sans" font-size="42.0" fill="#000000" transform="matrix(1.00, 0.00, -0.00, -1.00, 759.3, 137.7)"> </text></g></svg>