<?xml version="1.0" encoding="utf-8"?>
<svg xmlns:dc="http://purl.org/dc/elements/1.1/" xmlns:cc="http://creativecommons.org/ns#" xmlns:rdf="http://www.w3.org/1999/02/22-rdf-syntax-ns#" xmlns:svg="http://www.w3.org/2000/svg" xmlns="http://www.w3.org/2000/svg" xmlns:sodipodi="http://sodipodi.sourceforge.net/DTD/sodipodi-0.dtd" xmlns:inkscape="http://www.inkscape.org/namespaces/inkscape" xmlns:boxy="http://www.boxy-svg.com/boxyNS" version="1.1" width="176.7100067138672" height="176.7100067138672" id="svg2" xml:space="preserve" xmlns:xml="http://www.w3.org/XML/1998/namespace" inkscape:version="0.48.2 r9819" sodipodi:docname="JDKSFuse.svg" boxy:zoom="279" boxy:scrollX="-93" boxy:scrollY="-5" viewBox="0 0 176.71 176.71 ">
  <sodipodi:namedview pagecolor="#ffffff" bordercolor="#666666" borderopacity="1" objecttolerance="10" gridtolerance="10" guidetolerance="10" inkscape:pageopacity="0" inkscape:pageshadow="2" inkscape:window-width="1920" inkscape:window-height="1152" id="namedview3901" showgrid="false" inkscape:zoom="1.7767729" inkscape:cx="-127.74204" inkscape:cy="55.538876" inkscape:window-x="0" inkscape:window-y="338" inkscape:window-maximized="1" inkscape:current-layer="svg2" inkscape:document-units="pt" units="pt" fit-margin-top="0" fit-margin-left="0" fit-margin-right="0" fit-margin-bottom="0"/>
  <metadata id="metadata8">
    <rdf:RDF>
      <cc:Work rdf:about="">
        <dc:format>image/svg+xml</dc:format>
        <dc:type rdf:resource="http://purl.org/dc/dcmitype/StillImage"/>
      </cc:Work>
    </rdf:RDF>
  </metadata>
  <defs id="defs6">
    <clipPath id="clipPath12">
      <path d="M 0,0 265,0 265,253 0,253 0,0 z" inkscape:connector-curvature="0" id="path14"/>
    </clipPath>
    <clipPath id="clipPath22">
      <path d="m 0.334,253 144.001,0 0,-252.001 -144.001,0 0,252.001 z" inkscape:connector-curvature="0" id="path24"/>
    </clipPath>
    <clipPath id="clipPath28">
      <path d="M 0,0 265,0 265,253 0,253 0,0 z" inkscape:connector-curvature="0" id="path30"/>
    </clipPath>
    <clipPath id="clipPath38">
      <path d="M 0,0 265,0 265,253 0,253 0,0 z" inkscape:connector-curvature="0" id="path40"/>
    </clipPath>
  </defs>
  <g id="g16" transform="matrix(1.60292 0 0 -1.51598 -297.45 741.641)"/>
  <g id="g4023" style="fill:none;stroke:#000000;stroke-opacity:0.70588237;" transform="matrix(2.04474 0 0 1.93383 -4.42997 -0.840633)">
    <path d="m 35.2068,48.352 c 0,1.95625 -1.585,3.54125 -3.54125,3.54125 -1.95625,0 -3.54125,-1.585 -3.54125,-3.54125 0,-1.955 1.585,-3.54125 3.54125,-3.54125 1.95625,0 3.54125,1.58625 3.54125,3.54125 z" inkscape:connector-curvature="0" id="path96" style="fill: none; stroke: #f2f2f2; stroke-width: 8.75px; stroke-linecap: butt; stroke-linejoin: miter; stroke-miterlimit: 4; stroke-opacity: 0.70588237; stroke-dasharray: none; "/>
    <path d="m 71.04055,48.352 c 0,1.95625 -1.58625,3.54125 -3.54125,3.54125 -1.95625,0 -3.54125,-1.585 -3.54125,-3.54125 0,-1.955 1.585,-3.54125 3.54125,-3.54125 1.955,0 3.54125,1.58625 3.54125,3.54125 z" inkscape:connector-curvature="0" id="path98" style="fill: none; stroke: #f2f2f2; stroke-width: 8.75px; stroke-linecap: butt; stroke-linejoin: miter; stroke-miterlimit: 4; stroke-opacity: 0.70588237; stroke-dasharray: none; "/>
    <path d="m 67.70805,48.1445 c 4.16625,0 15,0 15,0" inkscape:connector-curvature="0" id="path100" style="fill: none; stroke: #f2f2f2; stroke-width: 2.5px; stroke-linecap: butt; stroke-linejoin: miter; stroke-miterlimit: 4; stroke-opacity: 0.70588237; stroke-dasharray: none; "/>
    <path d="m 31.4568,48.1445 c 22.9175,-32.5 13.33375,32.91625 36.25125,0" inkscape:connector-curvature="0" id="path102" style="fill: none; stroke: #f2f2f2; stroke-width: 5px; stroke-linecap: butt; stroke-linejoin: miter; stroke-miterlimit: 4; stroke-opacity: 0.70588237; stroke-dasharray: none; "/>
    <path d="m 14.948557,48.1445 c 0,0 12.837604,0 16.508243,0" inkscape:connector-curvature="0" id="path104" style="fill: none; stroke: #f2f2f2; stroke-width: 2.62278628px; stroke-linecap: butt; stroke-linejoin: miter; stroke-miterlimit: 4; stroke-opacity: 0.70588237; stroke-dasharray: none; "/>
    <path d="m 86.04055,48.1445 c 0,20.48 -16.6025,37.0825 -37.0825,37.0825 -20.48125,0 -37.08375,-16.6025 -37.08375,-37.0825 0,-20.48125 16.6025,-37.08375 37.08375,-37.08375 20.48,0 37.0825,16.6025 37.0825,37.08375 z" inkscape:connector-curvature="0" id="path106" style="fill: none; stroke: #f2f2f2; stroke-width: 8.75px; stroke-linecap: butt; stroke-linejoin: miter; stroke-miterlimit: 4; stroke-opacity: 0.70588237; stroke-dasharray: none; "/>
  </g>
  <g id="g4031" transform="matrix(2.04474 0 0 1.93383 -13.9414 -8.58962)">
    <path style="fill:#231f20;fill-opacity:1;fill-rule:nonzero;stroke:#231f20;stroke-width:8.75;stroke-linecap:butt;stroke-linejoin:miter;stroke-miterlimit:4;stroke-opacity:1;stroke-dasharray:none" id="path4033" inkscape:connector-curvature="0" d="m 35.2068,48.352 c 0,1.95625 -1.585,3.54125 -3.54125,3.54125 -1.95625,0 -3.54125,-1.585 -3.54125,-3.54125 0,-1.955 1.585,-3.54125 3.54125,-3.54125 1.95625,0 3.54125,1.58625 3.54125,3.54125 z"/>
    <path style="fill:#231f20;fill-opacity:1;fill-rule:nonzero;stroke:#231f20;stroke-width:8.75;stroke-linecap:butt;stroke-linejoin:miter;stroke-miterlimit:4;stroke-opacity:1;stroke-dasharray:none" id="path4035" inkscape:connector-curvature="0" d="m 71.04055,48.352 c 0,1.95625 -1.58625,3.54125 -3.54125,3.54125 -1.95625,0 -3.54125,-1.585 -3.54125,-3.54125 0,-1.955 1.585,-3.54125 3.54125,-3.54125 1.955,0 3.54125,1.58625 3.54125,3.54125 z"/>
    <path style="fill:none;stroke:#231f20;stroke-width:2.5;stroke-linecap:butt;stroke-linejoin:miter;stroke-miterlimit:4;stroke-opacity:1;stroke-dasharray:none" id="path4037" inkscape:connector-curvature="0" d="m 67.70805,48.1445 c 4.16625,0 15,0 15,0"/>
    <path style="fill:none;stroke:#231f20;stroke-width:5;stroke-linecap:butt;stroke-linejoin:miter;stroke-miterlimit:4;stroke-opacity:1;stroke-dasharray:none" id="path4039" inkscape:connector-curvature="0" d="m 31.4568,48.1445 c 22.9175,-32.5 13.33375,32.91625 36.25125,0"/>
    <path style="fill:none;stroke:#231f20;stroke-width:2.62278628;stroke-linecap:butt;stroke-linejoin:miter;stroke-miterlimit:4;stroke-opacity:1;stroke-dasharray:none" id="path4041" inkscape:connector-curvature="0" d="m 14.948557,48.1445 c 0,0 12.837604,0 16.508243,0"/>
    <path style="fill:none;stroke:#231f20;stroke-width:8.75;stroke-linecap:butt;stroke-linejoin:miter;stroke-miterlimit:4;stroke-opacity:1;stroke-dasharray:none" id="path4043" inkscape:connector-curvature="0" d="m 86.04055,48.1445 c 0,20.48 -16.6025,37.0825 -37.0825,37.0825 -20.48125,0 -37.08375,-16.6025 -37.08375,-37.0825 0,-20.48125 16.6025,-37.08375 37.08375,-37.08375 20.48,0 37.0825,16.6025 37.0825,37.08375 z"/>
  </g>
</svg>